<svg xmlns="http://www.w3.org/2000/svg" viewBox="0 0 48 48"><defs><style>.cls-3{fill:#374f68}.cls-4{fill:#425b72}.cls-5{fill:#7c7d7d}.cls-6{fill:#919191}.cls-7{fill:#c4455e}</style></defs><g id="Cargo"><path style="fill:#db5669" d="M4 21h40v26H4z"/><path d="M44 21v24H30A24 24 0 0 1 6 21z" style="fill:#f26674"/><path class="cls-3" d="M25.16 11.46A1 1 0 0 0 25 12a1 1 0 0 1-1 1l-13.55 6.89a1 1 0 0 1-.9-1.78c15.05-7.52 14.28-7.33 14.9-7a7.77 7.77 0 0 1 .71.35z"/><path class="cls-4" d="m25.13 11.44-12.68 6.45a1 1 0 0 1-1.38-.54l12.48-6.24c.54-.29.96.03 1.58.33z"/><path class="cls-3" d="m37.55 19.89-11.4-5.8a3 3 0 0 0 .85-1.72l11.48 5.74a1 1 0 0 1-.93 1.78z"/><path class="cls-4" d="M38.86 18.49a1 1 0 0 1-1.31.4l-10.88-5.53a3 3 0 0 0 .3-1c12.54 6.28 11.69 5.78 11.89 6.13z"/><path class="cls-5" d="M21 12.37c-.31-1.83.89-2.7 2-3.78V5a1 1 0 0 1 2 0c0 4.36.1 4.3-.29 4.71-2.09 2.07-1.12 1.38-3.71 2.66z"/><path class="cls-6" d="M25 9c0-4.22.17-4.45-.5-4.85-.66.4-.5.64-.5 4.44-1.14 1.14-2 1.75-2 3.24 0 .1-.13.12 1.13-.51C23.76 10.44 25 9.83 25 9z"/><path class="cls-5" d="M27 12a3 3 0 0 1-5.15 2.09L24 13a1 1 0 0 0 1-1 1 1 0 0 1 2 0z"/><path class="cls-3" d="M25 12a1 1 0 0 1-1 1l-2.78 1.41a2.83 2.83 0 0 1-.37-.32L23 13a1 1 0 0 0 1-1 1 1 0 0 1 .5-.87c1.04.51.5.15.5.87z"/><path class="cls-6" d="M25 12a1 1 0 0 1-1 1l-1.33.67a3 3 0 0 0 4.25-2.06A1 1 0 0 0 25 12z"/><path class="cls-5" d="M11 17v4H7v-4a2 2 0 0 1 4 0z"/><path class="cls-6" d="M11 17v3a3 3 0 0 1-3-3 4.1 4.1 0 0 1 .18-1.82A2 2 0 0 1 11 17z"/><path class="cls-5" d="M41 17v4h-4v-4a2 2 0 0 1 4 0z"/><path class="cls-6" d="M41 17v3a3 3 0 0 1-3-3 4.1 4.1 0 0 1 .18-1.82A2 2 0 0 1 41 17z"/><path class="cls-7" d="M10 26v16a1 1 0 0 1-2 0V26a1 1 0 0 1 2 0zM23 42V26a1 1 0 0 1 2 0v16a1 1 0 0 1-2 0zM13 42V26a1 1 0 0 1 2 0v16a1 1 0 0 1-2 0zM18 42V26a1 1 0 0 1 2 0v16a1 1 0 0 1-2 0zM28 42V26a1 1 0 0 1 2 0v16a1 1 0 0 1-2 0zM33 42V26a1 1 0 0 1 2 0v16a1 1 0 0 1-2 0zM38 42V26a1 1 0 0 1 2 0v16a1 1 0 0 1-2 0z"/><path class="cls-3" d="M21 1h6v4h-6z"/><path class="cls-4" d="M27 1v3h-2a3 3 0 0 1-3-3z"/></g></svg>