<svg xmlns="http://www.w3.org/2000/svg" xml:space="preserve" width="2048" height="2048" style="shape-rendering:geometricPrecision;text-rendering:geometricPrecision;image-rendering:optimizeQuality;fill-rule:evenodd;clip-rule:evenodd"><defs><clipPath id="id0"><path d="M1024-.001c565.541 0 1024 458.46 1024 1024s-458.461 1024-1024 1024c-565.541 0-1024-458.461-1024-1024 0-565.541 458.461-1024 1024-1024z"/></clipPath><style>.fil14{fill:#323132}.fil13{fill:#353636}.fil15{fill:#424242}.fil11{fill:#4589c7}.fil9{fill:#5091cd}.fil3{fill:#6cc2e0}.fil10{fill:#d53439}.fil16{fill:#e5e6e5}.fil18{fill:#eabe92}.fil19{fill:#eac49e}.fil17{fill:#f9d2aa}.fil25{fill:#fdcd9c}.fil7{fill:#fefefe}</style></defs><g id="Layer_x0020_1"><path d="M1024-.001c565.541 0 1024 458.46 1024 1024s-458.461 1024-1024 1024c-565.541 0-1024-458.461-1024-1024 0-565.541 458.461-1024 1024-1024z" style="fill:#ff9800"/><g style="clip-path:url(#id0)"><g id="_452511608"><path id="_4524996081" d="m2379.93 1665.6 2.478 2.163 5.367 4.896 5.252 5.008 5.135 5.118 5.017 5.223 4.897 5.327 2.996 3.407L2761 2046.67l-5.056-5.056.042.038 5.014 5.018 1.447 1.497 1.414 1.523 1.378 1.55 1.347 1.574 1.312 1.6 1.28 1.622 1.246 1.648 1.214 1.67 1.183 1.693 1.149 1.715 1.117 1.736 1.087 1.756 1.053 1.778 1.023 1.797.992 1.816.96 1.835.931 1.853.9 1.871.87 1.887.838 1.904.81 1.92.78 1.935.751 1.95.722 1.965.692 1.978.664 1.99.634 2.005.607 2.014.579 2.028.55 2.038.523 2.048.496 2.059.645 2.242.606 2.261.567 2.275.527 2.291.486 2.306.448 2.32.406 2.334.365 2.348.324 2.363.281 2.375.24 2.387.196 2.4.155 2.412.11 2.423.066 2.435.022 2.444h-.116l-.002.767v.115l-.019 1.69-.037 1.686-.053 1.686-.072 1.682-.088 1.68-.105 1.675-.123 1.674-.14 1.67-.156 1.666-.172 1.665-.189 1.659-.205 1.657-.223 1.652-.238 1.648-.254 1.644-.27 1.64-.206 1.642-.22 1.636-.232 1.631-.245 1.627-.256 1.62-.27 1.612-.282 1.607-.294 1.6-.305 1.592-.317 1.587-.33 1.577-.341 1.571-.352 1.562-.364 1.554-.375 1.545-.387 1.537-93.716-93.716-1.09.13-2.093.245-2.098.232-2.109.214-2.115.191-2.122.164-2.131.13-2.138.092-2.146.047h-2.152l-2.16-.057-2.165-.116-2.172-.18-2.18-.251v43.69l156.34 156.339-11.66-11.66 1.378 1.263 2.705 2.576 2.615 2.592 2.524 2.607 2.438 2.622 2.351 2.637 2.267 2.654 2.185 2.67 2.102 2.685 2.022 2.703 1.945 2.719 1.868 2.735 1.793 2.753 1.72 2.77 1.647 2.788 1.577 2.806 1.508 2.824 1.44 2.841 1.376 2.861 1.31 2.88 1.248 2.897 1.187 2.917 1.128 2.937 1.07 2.957 1.013 2.976.923 2.88.87 2.891.817 2.902.768 2.914.72 2.927.673 2.937.628 2.952.585 2.964.542 2.978.502 2.993.463 3.007.425 3.022.39 3.038.355 3.054.323 3.07.292 3.087.26 3.104.235 3.123.206 3.14.182 3.159.158 3.178.137 3.198.116 3.217.097 3.238.08 3.26.064 3.279.05 3.301.037 3.324.028 3.347.016 3.369.008 3.393.003 3.417-.001 9.745-7.666 5.91-5.097 3.841-5.168 3.723-5.236 3.605-5.303 3.485-5.367 3.368-5.428 3.248-5.487 3.13-5.546 3.01-5.6 2.893-5.653 2.772-5.704 2.655-5.752 2.536-5.798 2.416-5.843 2.299-5.883 2.179-5.923 2.06-5.961 1.941-5.995 1.824-6.027 1.704-6.06 1.585-6.086 1.467-6.112 1.348-6.136 1.228-6.158 1.11-6.177.992-6.194.872-6.208.754-6.222.635-6.231.516-6.24.397-6.245.28-6.249.159h-.018l-.016.002h-.071l-.016-.001-.018-.001-.626.01-.625.01-.626.007-.625.006-.626.004-.626.004-.625.001-.626.001-.138.001h-.608l-.608-.002-.609-.004-.608-.003-.608-.007-.608-.007-.609-.01-.608-.011-.018.002-.016.002-.018.001H2662.21l-.017-.003-.017-.002-4.582-.102-4.579-.164-4.577-.23-4.574-.292-4.57-.357-4.564-.42-4.559-.485-4.55-.549-4.545-.612-4.535-.675-4.526-.74-4.515-.804-4.505-.868-4.491-.932-4.48-.996-4.464-1.06-4.45-1.122-4.435-1.187-4.417-1.251-4.401-1.315-4.383-1.38-4.363-1.441-4.343-1.507-4.322-1.571-4.3-1.634-4.277-1.698-4.254-1.762-4.229-1.826-4.204-1.89-4.178-1.954-4.15-2.018-4.122-2.081-74.382 42.37-.785.43-.794.402-.8.374-.807.346-.814.32-.819.291-.823.264-.828.237.223 2.285.212 2.292.198 2.298.19 2.306.175 2.312.167 2.32.156 2.327.145 2.334.136 2.34.125 2.35.118 2.356.108 2.365.1 2.371.09 2.38.085 2.388.077 2.397.068 2.403.063 2.413.055 2.42.05 2.43.043 2.438.038 2.446.033 2.454.029 2.464.023 2.472.02 2.483.015 2.49.011 2.5.009 2.508.006 2.519.002 2.528.001 2.537-.002 13.535-10.647 8.207-7.08 5.336-7.177 5.171-7.272 5.007-7.365 4.841-7.453 4.676-7.54 4.512-7.622 4.347-7.702 4.18-7.777 4.018-7.852 3.851-7.922 3.686-7.989 3.522-8.053 3.357-8.114 3.193-8.172 3.027-8.226 2.862-8.279 2.696-8.326 2.532-8.372 2.367-8.414 2.202-8.455 2.037-8.488 1.872-8.523 1.707-8.552 1.541-8.58 1.378-8.602 1.211-8.623 1.047-8.641.882-8.655.717-8.666.552-8.674.386-8.679.222-.025.001-.023.001h-.025l-.024.001h-.048l-.024-.002-.025-.001-.869.014-.868.013-.87.01-.867.009-.87.006-.869.005-.868.002-.87.001-.19.001h-.845l-.846-.003-.844-.004-.846-.007-.844-.008-.846-.01-.845-.014-.844-.015-.025.003-.024.003h-.024l-.024.002-.024.001H2157.867l-8.69-.216-8.684-.38-8.676-.547-8.666-.711-8.65-.876-8.634-1.043-8.614-1.207-8.59-1.374-8.563-1.539-8.532-1.703-8.5-1.87-8.465-2.035-8.424-2.2-8.383-2.366-8.337-2.531-8.29-2.697-8.235-2.863-8.183-3.027-8.123-3.193-8.064-3.36-7.998-3.523-7.931-3.69-7.862-3.855-7.787-4.02-7.711-4.187-7.631-4.351-7.547-4.517-7.463-4.683-7.373-4.848-7.28-5.014-7.186-5.18-7.087-5.344-10.754-8.293-120.83-120.83-1.144.433-4.485 1.62-4.508 1.554-4.529 1.484-4.55 1.415-4.569 1.347-4.587 1.278-4.606 1.21-4.621 1.14-4.637 1.072-4.653 1.003-4.665.936-4.677.865-4.69.798-4.7.728-4.709.66-4.718.591-4.727.523-4.733.454-4.737.385-4.744.317-4.746.248-4.75.18-4.751.109-.018.001-.017.001H1657.767l-.017-.002-.626.01-.626.01-.625.007-.626.006-.626.005-.625.003-.626.001-.626.002h-.746l-.609-.002-.608-.003-.608-.004-.608-.007-.609-.007-.608-.01-.608-.011-.018.002-.017.003h-.017l-.018.002h-.07l-6.256-.155-6.253-.274-6.247-.393-6.24-.513-6.227-.63-6.218-.752-6.2-.869-6.186-.988-6.165-1.108-6.143-1.227-6.12-1.347-6.095-1.464-6.065-1.584-6.036-1.705-6.003-1.822-5.967-1.942-5.932-2.06-5.89-2.18-5.85-2.3-5.805-2.417-5.759-2.537-5.71-2.658-5.66-2.775-5.607-2.894-5.552-3.014-5.495-3.134-5.434-3.252-5.373-3.371-5.308-3.49-5.243-3.611-5.173-3.729-5.102-3.848-7.744-5.973-1135.88-1135.88v-9.681l.004-3.477.01-3.455.022-3.431.03-3.409.044-3.386.058-3.365c.021-1.119.047-2.232.074-3.344l.091-3.322a494.977 494.977 0 0 1 .392-9.848 407.291 407.291 0 0 1 .606-9.677 339.947 339.947 0 0 1 .543-6.36 300.019 300.019 0 0 1 .67-6.292 268.105 268.105 0 0 1 .81-6.228 238.275 238.275 0 0 1 .96-6.167 217.995 217.995 0 0 1 1.754-9.141 202.732 202.732 0 0 1 1.396-6.029 188.744 188.744 0 0 1 1.592-5.978 177.74 177.74 0 0 1 1.802-5.932 169.232 169.232 0 0 1 2.054-5.975 169.937 169.937 0 0 1 2.32-5.984 154.209 154.209 0 0 1 5.394-11.716 152.27 152.27 0 0 1 3.1-5.736 146.561 146.561 0 0 1 5.189-8.452 152.928 152.928 0 0 1 3.836-5.537 153.357 153.357 0 0 1 4.154-5.459 157.35 157.35 0 0 1 4.484-5.384 169.397 169.397 0 0 1 7.374-7.937 177.772 177.772 0 0 1 5.364-5.2 194.065 194.065 0 0 1 5.74-5.131 210.497 210.497 0 0 1 9.34-7.565 235.302 235.302 0 0 1 6.734-4.959 251.49 251.49 0 0 1 7.151-4.893l15.013-10.252-.012-.438.265.264 1.67-1.14.207.207v-.032l.156-.066.157-.066.313-.13.156-.067.468-.196.158-.066.155-.065.156-.065.157-.065.156-.065.156-.065.157-.065.156-.065.157-.064.156-.065.156-.063.157-.065.156-.064.156-.064.157-.064.156-.064.156-.063.157-.064.156-.064.156-.064.157-.062.156-.064.156-.063.156-.063.157-.063.156-.063.156-.062.157-.063.156-.062.155-.063.158-.063.155-.062.156-.062.156-.062.157-.062.156-.062.156-.062.156-.061.157-.062.156-.06.156-.062.157-.062.156-.061.156-.06.156-.062.157-.061.156-.06.156-.06.313-.122.156-.06.155-.06.313-.121.156-.06.156-.06.323-.294-.062-.074-.061-.075-.062-.074-.061-.074-.061-.075-.062-.074-.061-.075-.062-.074-.061-.074-.061-.075-.062-.074-.123-.15-.06-.075-.061-.074-.062-.076-.06-.074-.061-.076-.06-.074-.062-.076-.062-.074-.06-.076-.06-.075-.061-.075-.06-.075-.062-.076-.06-.075-.06-.076-.06-.076-.062-.075-.06-.075-.06-.075v-.001l-.06-.076-.061-.076-.06-.075-.06-.076-.06-.075-.061-.076-.06-.077-.06-.075-.06-.076-.061-.077-.06-.075-.06-.077-.06-.076-.06-.076-.059-.076-.06-.077-.06-.076-.06-.076-.06-.077-.059-.077-.06-.076-.059-.076-.06-.077-.06-.077-.058-.076-.06-.077-.06-.077-.059-.077-.06-.076-.059-.078-.059-.077-.06-.077c-.372-.485-.742-.973-1.11-1.463l-1.097-1.479-1.084-1.496a173.796 173.796 0 0 1-3.171-4.583 154.22 154.22 0 0 1-2.043-3.132l-1-1.588c-.33-.531-.659-1.068-.985-1.604l-.97-1.617a184.266 184.266 0 0 1-1.895-3.276l-.925-1.658c-.305-.555-.608-1.113-.908-1.673l-.893-1.685a177.885 177.885 0 0 1-1.736-3.407l-.843-1.724a179.553 179.553 0 0 1-1.636-3.48 181.344 181.344 0 0 1-3.787-8.901l-.703-1.812-.685-1.823c-.224-.61-.449-1.22-.667-1.832l-.647-1.84-.629-1.852c-.206-.617-.41-1.237-.61-1.859l-.793-1.932-.758-1.87-.724-1.815-.69-1.761-.657-1.714-.623-1.67-.592-1.632a138.592 138.592 0 0 1-1.592-4.71 111.125 111.125 0 0 1-1.328-4.531 92.524 92.524 0 0 1-1.674-7.487 98.329 98.329 0 0 1-.498-3.082 103.942 103.942 0 0 1-.726-6.513 140.403 140.403 0 0 1-.332-5.338c-.027-.62-.053-1.25-.074-1.89l-.056-1.952-.039-2.02-.023-2.095-.008-2.17a186.322 186.322 0 0 1 .133-6.891 174.4 174.4 0 0 1 .694-10.267 170.4 170.4 0 0 1 1.3-10.133 162.662 162.662 0 0 1 1.204-6.656 152.034 152.034 0 0 1 1.479-6.555 147.579 147.579 0 0 1 2.735-9.612 137.567 137.567 0 0 1 4.627-12.319 127.47 127.47 0 0 1 2.736-5.91 120.46 120.46 0 0 1 6.335-11.24 107.236 107.236 0 0 1 5.511-7.861 104.063 104.063 0 0 1 8.376-9.62 102.75 102.75 0 0 1 4.342-4.135l.058-.054.15-.128a108.393 108.393 0 0 1 4.429-3.755l.087-.074.197-.149a113.281 113.281 0 0 1 4.576-3.463l.142-.107.274-.186a119.35 119.35 0 0 1 4.7-3.175l.174-.118.297-.18a124.142 124.142 0 0 1 4.827-2.908l.24-.145.357-.193c1.613-.91 3.25-1.788 4.913-2.633l.295-.158.385-.183c1.658-.83 3.337-1.629 5.04-2.393l.322-.153.368-.154a134.987 134.987 0 0 1 5.202-2.173l.346-.144.355-.13c1.76-.68 3.54-1.329 5.336-1.942l.375-.137.338-.106a145.357 145.357 0 0 1 5.495-1.72l.368-.116.284-.074a145.544 145.544 0 0 1 5.612-1.485l.423-.112.279-.06c1.907-.455 3.829-.872 5.761-1.252l.38-.083.217-.037c1.988-.382 3.987-.724 5.996-1.027l.294-.05.147-.02c2.06-.304 4.13-.564 6.208-.784l.22-.028.097-.009c2.132-.22 4.272-.394 6.419-.524l.112-.01h.041a151.66 151.66 0 0 1 6.602-.249h.074c2.18-.033 4.364-.016 6.549.046h.081l.183.01c2.112.065 4.225.175 6.336.33l.169.009.322.032c2.042.158 4.083.355 6.12.598l.232.023.404.059c1.987.247 3.969.531 5.946.862l.295.043.428.082c1.96.338 3.911.715 5.857 1.135l.314.062.403.098c1.927.427 3.845.895 5.754 1.405l.38.093.431.128c1.9.52 3.79 1.081 5.666 1.685l.362.107.359.126c1.885.618 3.757 1.28 5.615 1.983l.388.137.333.137c1.86.717 3.703 1.478 5.531 2.281l.389.16.303.145c1.837.82 3.657 1.688 5.458 2.597l.363.173.243.132c1.813.928 3.604 1.904 5.375 2.924l.363.198.22.135a121.923 121.923 0 0 1 5.3 3.278l.3.184.155.109c1.774 1.17 3.52 2.394 5.24 3.665l.248.173.112.089a119.9 119.9 0 0 1 5.209 4.11l.128.102.05.043a119.57 119.57 0 0 1 5.19 4.614 118.67 118.67 0 0 1 4.862 4.861l292.46 292.46-.012-.014-.083-.104-.085-.105-.084-.104-.085-.105-.084-.104-.084-.105-.084-.105-.169-.21-.084-.104-.084-.105-.083-.106-.084-.105-.084-.105-.084-.105-.083-.105-.083-.106-.084-.105-.084-.106-.083-.106-.084-.105-.082-.106-.084-.105-.083-.107-.084-.105-.082-.106-.084-.106-.083-.107-.083-.106-.082-.105-.167-.213-.083-.106-.082-.108-.083-.106-.083-.106-.082-.106-.082-.108-.082-.106-.083-.106-.083-.108-.081-.106-.083-.108-1.233-1.62-1.221-1.635-1.21-1.649c-.401-.551-.8-1.108-1.197-1.664l-1.186-1.677-1.174-1.693-1.161-1.705-1.15-1.72-1.136-1.732-1.123-1.746-1.11-1.76-1.099-1.772-1.084-1.785-1.071-1.798c-.356-.601-.706-1.205-1.057-1.81l-1.044-1.822-1.031-1.834-1.017-1.846-1.002-1.858-.989-1.869-.974-1.881-.959-1.891-.945-1.903a204.75 204.75 0 0 1-.93-1.914l-.916-1.924-.9-1.935-.886-1.944-.576-1.291-5.928-5.928a270.743 270.743 0 0 1-2.803-7.075 273.53 273.53 0 0 1-1.757-4.777 252.262 252.262 0 0 1-2.466-7.25 266.76 266.76 0 0 1-2.256-7.347 283.225 283.225 0 0 1-1.384-4.946c-.223-.828-.441-1.657-.656-2.487a257.732 257.732 0 0 1-2.373-10.035 253.442 253.442 0 0 1-1.963-10.16 268.794 268.794 0 0 1-.824-5.122 231.97 231.97 0 0 1-.371-2.57 232.394 232.394 0 0 1-.662-5.157l-.058-.499-51.044-51.044a325.69 325.69 0 0 1-7.195-6.969l-.314-.304-.317-.327c-2.3-2.305-4.567-4.64-6.794-7.01l-.151-.157-.074-.08a331.51 331.51 0 0 1-6.698-7.363l-.243-.268-.281-.328a332.738 332.738 0 0 1-6.29-7.368l-.19-.223-.103-.13a332.672 332.672 0 0 1-6.199-7.738l-.203-.254-.267-.356a331.723 331.723 0 0 1-5.748-7.657l-.228-.304-.139-.196a332.187 332.187 0 0 1-5.698-8.11l-.14-.2-.202-.306a331.23 331.23 0 0 1-5.26-8.008l-.245-.37-.171-.28a329.267 329.267 0 0 1-5.16-8.415l-.1-.165-.168-.294a334.447 334.447 0 0 1-4.767-8.35l-.219-.384-.177-.333a329.766 329.766 0 0 1-4.643-8.759l-.05-.095-.099-.199a332.107 332.107 0 0 1-4.286-8.736l-.198-.406-.176-.387a330.814 330.814 0 0 1-4.07-8.996l-.044-.103h-.001l-.044-.105a335.333 335.333 0 0 1-3.79-9.134l-.16-.387-.16-.417a327.656 327.656 0 0 1-3.462-9.148l-.073-.195-.033-.098a327.537 327.537 0 0 1-3.219-9.382l-.138-.403-.15-.488a328.7 328.7 0 0 1-2.835-9.203l-.095-.312-.049-.175c-.93-3.202-1.81-6.421-2.642-9.656l-.077-.283-.094-.392a330.734 330.734 0 0 1-2.248-9.372l-.109-.453-.059-.29a328.968 328.968 0 0 1-2.022-9.802l-.046-.225-.061-.352a328.815 328.815 0 0 1-1.664-9.607l-.077-.447-.046-.327a331.991 331.991 0 0 1-1.404-10.016l-.02-.147-.029-.266a328.588 328.588 0 0 1-1.06-9.859l-.048-.443-.027-.356c-.305-3.38-.561-6.77-.762-10.17l-.008-.11-.01-.224a329.39 329.39 0 0 1-.425-10.042l-.019-.433-.003-.398a328.636 328.636 0 0 1-.103-10.357l.024-2.326c.01-.776.022-1.55.039-2.327l.055-2.33.073-2.331.089-2.334.106-2.335.122-2.339c.043-.78.09-1.559.14-2.338l.155-2.341.173-2.344.189-2.343.205-2.346.223-2.348.24-2.348.256-2.35.275-2.35c.093-.785.192-1.57.291-2.353l.307-2.353.326-2.355.342-2.355.36-2.357.377-2.356.394-2.357c.134-.787.27-1.572.411-2.36l.429-2.358.446-2.36.465-2.36.48-2.36.5-2.36.516-2.361.535-2.361.552-2.361a356.955 356.955 0 0 1 2.154-8.576 350.322 350.322 0 0 1 2.363-8.469 324.65 324.65 0 0 1 2.57-8.36 339.233 339.233 0 0 1 2.769-8.25 332.013 332.013 0 0 1 6.132-16.157 337.242 337.242 0 0 1 3.356-7.904 341.856 341.856 0 0 1 3.543-7.786 328.753 328.753 0 0 1 7.637-15.203 341.273 341.273 0 0 1 4.087-7.414 338.234 338.234 0 0 1 6.457-10.88 321.32 321.32 0 0 1 6.837-10.586 336.725 336.725 0 0 1 9.69-13.645l.372-.863.358-.832.344-.8.333-.772 1.215-2.806c.377-.864.729-1.663 1.06-2.403.332-.741.644-1.425.943-2.061a68.36 68.36 0 0 1 .861-1.778c.278-.552.547-1.065.815-1.552.268-.487.535-.945.807-1.385a29.613 29.613 0 0 1 1.73-2.509c.314-.409.645-.82.998-1.241a54.25 54.25 0 0 1 1.134-1.311c.405-.456.839-.931 1.307-1.439l1.518-1.628.416-.442.432-.46.45-.476.464-.495.483-.514.502-.533 1.061-1.132 2.363-2.543a315.071 315.071 0 0 1 9.094-9.449 321.116 321.116 0 0 1 22.924-20.748 323.784 323.784 0 0 1 10.55-8.297 317.947 317.947 0 0 1 7.276-5.322 323.882 323.882 0 0 1 19.027-12.537 342.09 342.09 0 0 1 7.944-4.695 327.24 327.24 0 0 1 8.135-4.504 330.71 330.71 0 0 1 12.559-6.393 324.1 324.1 0 0 1 4.28-2.032 352.407 352.407 0 0 1 8.703-3.908c1.465-.635 2.94-1.26 4.422-1.877a333.307 333.307 0 0 1 4.469-1.825l3.86.862.327.326 1.559-.626a338.988 338.988 0 0 1 15.149-5.61 355.715 355.715 0 0 1 7.682-2.532c1.286-.407 2.574-.807 3.867-1.199a318.454 318.454 0 0 1 7.782-2.256c1.303-.36 2.607-.715 3.914-1.06a342.101 342.101 0 0 1 11.835-2.892 344.657 344.657 0 0 1 7.962-1.69 323.013 323.013 0 0 1 8.013-1.498 328.93 328.93 0 0 1 20.248-2.889 333.938 333.938 0 0 1 16.389-1.413 341.209 341.209 0 0 1 8.25-.403 344.084 344.084 0 0 1 8.282-.196 304.01 304.01 0 0 1 4.153-.022H1026.403l.016.002h.065l.017.002h.015l.016.001.017.001h.015l.017.002 2.304.014 2.306.03 2.308.045 2.31.063c.771.022 1.54.05 2.311.078l2.314.094 2.315.111 2.317.128 2.318.144 2.32.16 2.321.177 2.322.193 2.325.21 2.325.226 2.326.243 2.328.26 2.328.277 2.33.293 2.33.31 2.33.326 2.332.345 2.333.36 2.333.378 2.334.395 2.333.41 2.336.43 2.335.446 2.335.463 2.335.48 2.335.498c.778.169 1.558.339 2.336.514l2.335.532 1.175.286c2.446.575 4.88 1.179 7.298 1.806l.245.06.353.096c2.272.593 4.535 1.208 6.785 1.846l.32.088.292.086c2.307.658 4.603 1.338 6.884 2.043l.198.06.105.033c2.36.731 4.706 1.485 7.038 2.266l.144.046.276.095c2.241.753 4.47 1.528 6.686 2.324l.237.082.27.102c2.198.794 4.384 1.61 6.556 2.447l.283.105.183.074c2.293.887 4.574 1.796 6.837 2.73 2.237.924 4.457 1.872 6.666 2.842l.26.111.372.169c2.058.91 4.105 1.839 6.14 2.786l.32.144.265.128c2.08.975 4.148 1.97 6.202 2.984l.27.13.138.071a320.325 320.325 0 0 1 6.351 3.236l.15.077.275.149a329.89 329.89 0 0 1 6.054 3.26l.213.114.24.136a325.68 325.68 0 0 1 5.948 3.378l.255.145.177.107c2.07 1.21 4.126 2.436 6.165 3.687a321.515 321.515 0 0 1 5.993 3.77l.246.155.35.23a322.845 322.845 0 0 1 5.458 3.609l.327.216.281.195c1.888 1.281 3.76 2.58 5.617 3.897l.132.091.066.049a325.065 325.065 0 0 1 5.741 4.174l.116.083.223.17a325.324 325.324 0 0 1 5.32 4.055l.271.206.307.244a341.208 341.208 0 0 1 5.163 4.119l.235.188.158.132a328.786 328.786 0 0 1 5.436 4.535c1.79 1.527 3.56 3.075 5.312 4.637l.17.148.244.223a320.802 320.802 0 0 1 4.864 4.439l.258.235.234.223a332.58 332.58 0 0 1 4.808 4.584l.21.2.112.11c1.68 1.64 3.34 3.296 4.983 4.968l.04.04.08.084c1.59 1.62 3.162 3.257 4.715 4.908l.222.231.242.264a334.219 334.219 0 0 1 4.385 4.769l.27.294.171.195a333.612 333.612 0 0 1 4.604 5.235l340.285 340.285a119.971 119.971 0 0 1 7.864 7.62l754.811 754.812z" style="fill:#f57c00"/></g></g><path d="M1024-.001c565.541 0 1024 458.46 1024 1024s-458.461 1024-1024 1024c-565.541 0-1024-458.461-1024-1024 0-565.541 458.461-1024 1024-1024z" style="fill:none"/><g id="_459073080"><path id="_459054384" class="fil3" d="M1102.75 451.565c-.475-.122-.834-.24-1.188-.358-25.329-5.878-50.668-8.707-75.632-8.728h-.19c-152.7-.04-291.371 105.024-328.268 260.433-5.946 25.395-8.92 50.793-9.156 75.835-.952 152.978 103.134 291.29 258.129 327.299.354 0 .713.12 1.066.237 179.98 41.018 360.076-71.537 402.897-251.942 42.71-180.404-68.158-360.45-247.658-402.776z"/><path id="_459048408" class="fil3" d="M1026.02 442.504c-152.738-.24-291.676 104.928-328.553 260.408-5.946 25.395-8.92 50.793-9.156 75.835-.952 152.978 103.134 291.291 258.13 327.3.353 0 .712.12 1.187.237a345.09 345.09 0 0 0 74.23 8.467l4.162-672.247z"/><path id="_459051648" d="M1102.75 451.565c-.475-.122-.834-.24-1.188-.358-25.103-5.843-50.2-8.585-74.946-8.703h-.592l-4.162 672.247c152.855.12 291.676-104.926 328.546-260.41 42.709-180.404-68.158-360.45-247.658-402.776z" style="fill:#5fb3cf"/><path id="_459051336" d="M1356.36 727.595c-7.371-53.657-27.713-104.211-58.404-147.494l-5 5.367-16.413 2.503-7.97 5.481-.476 8.35 7.492 2.86 1.904 12.879 14.634-2.267-1.43 16.214-4.041-.951-10.71-4.176-12.607-.834-15.821 14.071-17.483-1.313-5.95 13.952 6.78 3.34-4.28 8.943-16.063-7.275-16.179-.235-5.233 7.87-1.663 18.595 8.088 6.442 15.104 3.34 10.47 1.428 5.117-7.393 20.934-17.172 9.995 4.655 12.609-7.04.117 7.757 21.412 23.25-4.045 3.454-11.417-3.218 2.974 7.276 6.78 3.218 9.041-1.55 2.258-10.137 4.042-.957-2.137-3.812-14.75-13.472-1.546-13.713 14.154 3.337 3.446 5.485 9.759 13.355-2.5 12.877 9.395 16.455 9.042-17.41 9.874-2.743-1.904 15.504 6.304 11.328 16.297 3.576z" style="fill:#a67d6e"/><path id="_459073680" d="M1230.62 1042.14c59-45.666 101.824-111.846 120.383-190.181 7.612-31.955 9.755-64.625 8.087-95.744l-1.545.83-26.054-6.08-13.08-15.498-17.012-2.267-2.383 10.255-5.35-1.311-4.76-5.367-27.12-14.067 4.4-18.839-37.35-5.608-12.845 3.46-14.517-3.337-7.012-2.386-19.988 5.723-4.4 18.602-42.23 17.766.239 11.8 7.37 1.673-4.396 10.253-5.591.713-6.9 27.666 22.72 43.045 13.68 3.1 1.309-2.03 24.382 5.725 8.687-4.891 13.801 3.223 5.824 9.416 20.105 6.916-9.28 26.832 13.325 46.02c-34.378 39.83-4.045 64.864-14.991 110.888l12.492 3.7z" style="fill:#9ecf7c"/><path id="_459050328" class="fil7" d="m839.502 548.384-1.663-2.861.475-.717 2.141 2.386z"/><path id="_459047496" class="fil7" d="m897.673 469.453 1.309 2.62c.115.236-.002.477-.122.595l-.833 1.195.241 2.145v4.17l.234 2.27c.238.359.838 1.548.838 1.788l.591 4.528c.355.24 1.07.599.596 1.197l-3.57 4.646c-.118.122-.235.123-.359.24l-2.258.24c-.36.119-1.546.831-1.784.831l-2.142.24c-.116.24-.358.599-.595.716l-1.663.833c-.358.123-.6-.476-.833-.235l-6.305 8.105-.24 1.668c0 .359.24 1.197 0 1.555l-.83 1.07.712 1.315c.117.358-.117.716-.474.83l-.955.122-2.375 3.218c-.242.24-.95.24-1.309.24-.237.236-.478.717-.717.717l-.953.117-7.371 9.539 1.904 2.384a.774.774 0 0 1 0 .716l-1.43 1.786.835 5.725c0 .118 0 .24-.122.359l-1.424 1.907-.242 2.862c0 .117 0 .24-.117.358l-1.428 1.786c.12.358.24 1.075.12 1.314l-3.096 4.053c-.233.358-.95.358-1.305.358l-7.612 9.9c-.237.236-1.67.472-1.904.236l-7.375-5.722h-.12l-3.688-3.816-10.946 14.184c-.233.48-.592.245-.95 0l-1.188 1.555a.918.918 0 0 1-.595.236l-1.663-.358-7.616 3.34-1.546 1.909c0 .118-.122.118-.359.118l-2.137.358-5.83 7.751-.237 2.861-.358 1.786.95 2.742c.12.123 0 .36-.117.481l-4.52 5.96c-.355.477-.714.24-1.071.001-.238.24-.475.599-.95.354l-.834-.712-5.829 7.63c-.242.239-.954.24-1.305.24l-1.432 1.907c-.238.237-.955.237-1.31.237l-1.903 2.506c-.237.359-1.071.359-1.43.359l-8.203 10.847-1.309 17.407 11.776 30.648-6.663 7.39 7.258 20.39 26.883 13.594 1.071-4.533 10.946 4.175-2.979 7.988 21.534 10.73 14.275 26.948 24.504 7.63-2.38 20.988-19.983 8.105-5.112 18.006-5.121 10.612 17.367 36.844-.592 11.087s8.325 4.53 9.4 4.772c1.07.236 16.65 19.079 16.65 19.079l-13.2 56.157 6.304 3.459-10.83 24.8 7.855 17.887-8.209 25.276 8.8 30.046 15.35 21.462 19.271 4.888 3.447-5.838-11.422-15.387 2.263-5.837 4.28-6.801 2.261-7.271-9.512-2.504-3.45-7.391 9.871-5.842 2.496-5.604-8.326-4.654 1.784-5.363 13.205 1.074 21.65-4.89 9.395-10.492 26.525-21.463.242-21.584 8.8-9.42 18.558 5.012 14.988-7.154 13.446-38.513 18.196-14.55 5.237-10.966-11.779-7.037-5.117-15.857-28.783-6.917-20.7-13.953 2.733-16.691-4.396-15.023-20.583-5.127-7.492-21.582-9.396-7.634-1.904 5.608-19.508-3.338-4.762-11.45-19.03-8.82-21.171 15.38-24.983-10.49 5.117-29.931-18.322-7.63 11.062-12.756-.236-8.826-28.905 10.97-15.224-5.484-2.738-13.713 6.42-11.927 12.493-13.949 22.367-5.603 38.541 8.945-2.98 11.804 12.376 9.66 3.683-20.394 12.375-7.748 23.317-8.586 3.562-9.061 25.105-16.337 24.15-6.914-1.555-2.03 17.726-10.254 5 2.625 1.662 3.577 8.446-5.005-11.42-5.725 1.311-5.962 3.925-1.908 7.139 1.668 2.974 2.145 1.425 6.44 3.567.241.12-.48 11.3 1.313 2.618-4.528 5.354 2.738-1.31 5.245-6.187 2.507h.122l-.714 5.961 16.892 9.9v.236l4.28.594 2.146-7.87-8.567-6.558 1.9-7.984 6.784-.598 3.207-11.328-10.587-10.612 3.692-19.439-19.033 4.415-6.305-1.431 5.117-14.307-22.013-10.97-11.3 5.008-5.23 22.3-18.678 1.545-10.346 12.879-7.854-.477 4.404-18.603-15.704-6.079-6.896-7.154-.48-12.878 33.188-10.254 15.346-1.07-.829 9.896 7.967 1.427 1.783-4.65 8.567.716.596-1.669-3.217-2.265.359-5.367 10.47 1.554 8.087-5.367h.122l2.258-1.55 22.125 2.261 7.612 10.376-28.075 7.512 29.859 14.788 6.662-9.66 13.8 3.221 7.138-8.109-9.159-4.773 2.733-11.682-27.48-20.747-21.765-2.503-13.442 3.576-2.737 15.382-12.017-4.77v-8.943l14.634-8.106-21.53-6.082-6.662.475-4.521 6.677 7.85 3.219-3.563 7.87-14.037-2.385-3.454 4.89-20.221-4.052s2.141-11.567 1.308-11.808c-.717-.237 15.821 3.341 15.821 3.341l14.75-8.943-5.708-4.77-10.708 6.441-14.275-4.174-5.825-13.949-18.439-4.297-22.72 9.896 17.726 4.175.354 5.485-5.593 3.336 19.393 5.128 1.312 7.755-21.771-5.965.117-5.721-13.083-6.2-6.426-5.722-9.637-2.271-.117.122c-.12.119-.12.119-.355.237-.12.121-.717.24-.954.24h-.478c-.355-.119-.472 0-.714.24-.116.117-.232.235-.353.235l-.48.358c-.354.481-.354.6-1.066.839z"/><path id="_459051912" d="M895.885 465.872c-48.29 19.32-88.5 47.815-120.258 82.276-13.567 14.782-12.021 11.328-20.105 30.28l-5.708 17.53 12.013 9.778-6.067 25.875 7.734 25.277 10.23 4.174 3.09-7.393-7.85-22.18 2.021-19.434 7.255 1.79v.717l7.378-9.782c.237-.236 1.066-.236 1.426-.358l1.903-2.502c.121-.241.955-.24 1.31-.24l1.303-1.905c.242-.24 1.075-.24 1.433-.358l5.947-7.752c.237-.24.595-.357.832-.117l.83.716c.479-.717.716-.599 1.191-.24l4.162-5.368c-.232-.358-.95-2.501-.95-2.86l.359-1.786.233-2.982c0-.119 0-.24.126-.358l6.062-7.988c.12-.122.238-.24.358-.24l2.138-.24c.242-.359 1.43-1.905 1.67-2.026l6.78-3.338c.117 0 1.308-.235 1.546-.122l1.429.241 1.425-1.787c.238-.358.596-.122.954.118l10.7-13.952-2.137-3.573c-.121-.24-.121-.48.12-.716l.95-1.314c.238-.24.596-.24.833-.118l2.621 2.148c.355.235.355 1.07.355 1.546 0 .122 0 .241-.12.358l-1.189 1.669 10.942 9.423.713-.122 7.616-9.895c.113-.237.95-.237 1.308-.358l2.738-3.695c0-.359-.242-1.074 0-1.31l1.425-1.913.234-2.86c0-.119 0-.24.125-.24l1.307-1.904-.717-5.608c0-.235 0-.358.117-.471l1.314-1.673-1.906-2.384a.781.781 0 0 1 0-.716v-.001l7.734-10.014c.117-.24.95-.24 1.309-.358.117-.24.353-.597.712-.597l.95-.12 2.38-3.217c.24-.24.595-.24.837-.24l-.483-1.074c-.113-.119-.113-.358-.001-.595l.954-1.074c0-.237-.237-.952-.116-1.192 0-.358.238-1.909.475-2.027l6.663-8.703c.354-.481.833-.122 1.066.118l1.313-.6c.233-.234.474-.71.829-.71l2.263-.36c.358-.117 1.545-.832 1.782-.832l2.138-.24 3.1-4.053c-.12-.24-.359-.358-.359-.599l-.712-4.646c-.124-.358-.717-1.555-.833-1.791l-.242-2.385v-4.292l-.237-2.266c-.117-.118 0-.237 0-.358l.834-1.075-1.426-3.097c-.237-.598.358-.955.717-.716.233-.118.112 0 .47-.118.239-.121.239-.48.476-.597.358-.24.6-.358.833-.598.359-.236.48-.36.954-.472l-3.93-.839z" style="fill:#cecdcc"/><path id="_459055944" class="fil7" d="M1024 778.625v-.115z"/><path id="_459049608" class="fil7" d="m1011.75 762.292 4.04-3.935 11.3.358-.35 13.712 3.45 10.613 2.73 5.245 6.31 4.292-8.33 6.32-12.97-1.79-9.52-2.145 3.81-11.089 8.33.237.59-5.485-6.3-6.437-4.28-4.647z"/><path id="_459056784" class="fil7" d="m1012.82 778.864 9.04-9.061h9.28l5.59 4.175-2.26 7.031-15.7 6.441-7.62-1.786z"/><path id="_459061392" class="fil7" d="m1014.36 775.524 9.4 2.148 3.091-4.533 3.805.716 4.046 1.913-2.734 3.336-4.762-.716-2.021 4.293-4.162 1.428-5.83-.83c.121-1.433.237-2.385.237-2.385l-2.141-.597 1.071-4.773z"/><path id="_459072648" class="fil7" d="m1019.6 781.965 1.43-4.65 3.92-3.101 3.34 4.174-1.79 4.652z"/><path id="_459064320" class="fil7" d="m1020.91 775.288-.12 3.935 4.4 3.341 1.9-7.992z"/><path id="_459070200" class="fil9" d="M1368.96 1316.73c13.442-7.629 30.454-2.858 38.067 10.496 7.612 13.471 2.858 30.521-10.467 38.155l-84.1 47.933c-13.32 7.63-30.455 2.98-37.946-10.496-7.617-13.471-2.975-30.525 10.466-38.154l83.98-47.934z"/><path id="_459071280" class="fil9" d="M661.426 1365.38c-13.44-7.633-18.197-24.684-10.587-38.154 7.617-13.355 24.747-18.126 38.069-10.497l83.981 47.934c13.438 7.629 18.2 24.683 10.588 38.154-7.613 13.476-24.747 18.126-38.067 10.496l-83.984-47.933z"/><path id="_459064152" class="fil7" d="M1434.39 1123.33c66.612-28.26 132.274-29.809 201.503-.117l.835 249.56h-203.652l1.313-249.443z"/><path id="_459078456" class="fil10" d="M1513.85 1187.96h40.21l23.2 142.84-41.4 53.18-40.33-53.18z"/><path id="_459074496" class="fil11" d="M1534.91 1187.96H1554.06l23.2 142.84-41.4 53.18-.83-1.19-.12-.12z"/><path id="_459067056" style="fill:#377cbe" d="M1513.85 1187.96h21.06v194.71l-39.38-51.87z"/><path id="_459056160" class="fil11" d="M1534.31 1099.85c25.812 0 46.75 23.613 46.75 52.82 0 29.097-20.938 44.359-46.75 44.359-25.808 0-46.75-15.262-46.75-44.359 0-29.207 20.94-52.82 46.75-52.82z"/><path id="_459048768" class="fil13" d="m1635.66 1123.1 21.053 14.304c38.068 26.471 58.055 55.205 68.638 87.4 10.234 30.884 11.062 63.672 11.062 100.635l.001 9.778-7.73 5.964c-55.79 43.162-124.904 64.745-193.776 64.745-68.878 0-137.87-21.583-193.658-64.745l-7.853-6.08v-9.78c0-37.562 1.07-70.95 11.895-102.662 11.304-32.67 32.238-61.645 71.85-87.879l17.009-11.68 100.758 167.042L1635.66 1123.1z"/><path id="_459048672" class="fil14" d="M1540.26 1405.8c-1.782 0-3.45.122-5.233.122v-115.9l102.893-165.975-2.975 107.196-42.462 13.587 15.107 40.304c-19.033 2.263-53.292 80.721-67.33 120.667v-.001z"/><path id="_459048816" class="fil14" d="M1529.91 1405.8c1.668 0 3.455.122 5.117.122v-115.9l-102.775-165.975 2.854 107.196 42.467 13.587-15.109 40.304c19.154 2.263 53.292 80.721 67.446 120.667v-.001z"/><path id="_459053040" class="fil15" d="M1540.14 1405.8c-1.788 0-3.455.122-5.118.122l.001-115.9 100.042-165.975-3.217 105.162-41.275 13.595 14.75 40.3c-18.674 2.267-51.504 82.751-65.184 122.698l.001-.001z"/><path id="_459059592" class="fil15" d="M1530.03 1405.8c1.662 0 3.333.122 4.995.122l.001-115.9-100.042-165.975 3.211 105.162 41.397 13.595-14.75 40.3c18.554 2.267 51.387 82.751 65.188 122.698v-.001z"/><path id="_459073944" class="fil16" d="M1614.37 1111.3c9.158 4.292 20.574 10.488 15.937 19.55-14.866 28.734-30.33 54.967-52.934 80.126l-41.395-45.547 78.392-54.13z"/><path id="_459077112" class="fil16" d="M1457.47 1111.3c-9.041 4.292-20.578 10.488-15.82 19.55 14.867 28.734 30.332 54.967 52.816 80.126l41.513-45.547-78.509-54.13z"/><path id="_459058128" class="fil17" d="M1534.91 874.133c36.042 0 68.871 14.91 92.546 38.988 23.552 23.967 38.183 57 38.183 93.363h-.12v.957c-.238 40.776-15.821 79.764-38.9 108.385-24.742 30.524-58.521 50.316-92.9 50.316v-.12h-.479c-35.092-.238-68.397-20.747-92.425-51.984-22.126-28.858-36.638-67.608-36.638-107.554 0-36.363 14.512-69.396 38.183-93.363 23.672-24.08 56.383-38.987 92.55-38.987v-.001z"/><path id="_459078648" class="fil18" d="M1534.91 1166.14h-1.19v-.12h-.48c-35.092-.238-68.397-20.747-92.425-51.984-22.126-28.858-36.638-67.608-36.638-107.554 0-36.363 14.512-69.396 38.183-93.363 23.672-24.08 56.383-38.987 92.55-38.987v292.008z"/><path id="_459076896" class="fil19" d="M1534.91 874.133h.593c35.924.122 68.395 15.021 91.954 38.988 23.55 23.967 38.182 57 38.182 93.363h-.12v.957c-.238 40.776-15.821 79.764-38.9 108.385-24.383 30.041-57.57 49.72-91.475 50.316h-.234V874.133z"/><path id="_459078984" class="fil13" d="M1629.36 909.667c37.116 37.675 41.633 101.113 29.024 150.354-1.666-55.204-26.403-85.012-57.216-94.312-20.934-6.322-43.775 4.17-67.8.354-56.863-8.937-123.005-14.904-120.625 93.842-8.8-21.225-11.3-31.005-11.3-54.847 0-37.203 11.183-73.57 35.328-98.016 45.801-46.262 140.01-53.295 192.588 2.625z"/><path id="_459062496" class="fil7" d="M412.577 1123.33c66.614-28.26 132.276-29.809 201.51-.117l.83 249.56h-203.65l1.31-249.443z"/><path id="_459070248" class="fil10" d="M492.037 1187.96h40.206l23.08 142.84-41.276 53.18-40.329-53.18z"/><path id="_459077856" style="fill:#8ec352" d="M513.094 1187.96h19.149l23.08 142.84-41.276 53.18-.835-1.19-.118-.12z"/><path id="_459048216" style="fill:#7bb24d" d="M492.037 1187.96h21.057v194.71l-39.376-51.87z"/><path id="_459071376" d="M512.5 1099.85c25.814 0 46.746 23.613 46.746 52.82 0 29.097-20.932 44.359-46.746 44.359-25.813 0-46.753-15.262-46.753-44.359 0-29.207 20.94-52.82 46.753-52.82z" style="fill:#a1ce67"/><path id="_459076032" class="fil13" d="m613.848 1123.1 21.057 14.304c38.06 26.471 58.049 55.205 68.636 87.4 10.23 30.884 11.059 63.672 11.059 100.635v9.778l-7.73 5.964c-55.791 43.162-124.904 64.745-193.776 64.745-68.876 0-137.865-21.583-193.66-64.745l-7.85-6.08v-9.78c0-37.562 1.07-70.95 11.894-102.662 11.304-32.67 32.24-61.645 71.85-87.879l17.01-11.68 100.756 167.042L613.848 1123.1z"/><path id="_459058608" class="fil14" d="M518.445 1405.8c-1.787 0-3.446.122-5.233.122v-115.9l102.894-165.975-2.97 107.196-42.47 13.587 15.109 40.304c-19.153 2.263-53.293 80.721-67.33 120.667v-.001z"/><path id="_459053736" class="fil14" d="M508.098 1405.8c1.664 0 3.45.122 5.114.122v-115.9l-102.778-165.975 2.856 107.196 42.469 13.587-15.109 40.304c19.153 2.263 53.292 80.721 67.448 120.667v-.001z"/><path id="_459050472" class="fil15" d="M518.327 1405.8c-1.782 0-3.451.122-5.115.122v-115.9l100.042-165.975-3.212 105.162-41.28 13.595 14.75 40.3c-18.677 2.267-51.505 82.751-65.185 122.698v-.001z"/><path id="_459054216" class="fil15" d="M508.216 1405.8c1.664 0 3.332.122 4.996.122v-115.9l-100.04-165.975 3.21 105.162 41.398 13.595-14.75 40.3c18.56 2.267 51.388 82.751 65.186 122.698v-.001z"/><path id="_459055704" class="fil16" d="M592.554 1111.3c9.16 4.292 20.582 10.488 15.943 19.55-14.872 28.734-30.34 54.967-52.939 80.126l-41.397-45.547 78.393-54.13z"/><path id="_459064248" class="fil16" d="M435.653 1111.3c-9.16 4.292-20.582 10.488-15.82 19.55 14.867 28.734 30.333 54.967 52.814 80.126l41.513-45.547-78.507-54.13z"/><path id="_459070128" class="fil17" d="M513.094 874.133c36.044 0 68.873 14.91 92.546 38.988 23.552 23.967 38.183 57 38.183 93.363h-.121v.957c-.237 40.776-15.82 79.764-38.897 108.385-24.742 30.524-58.524 50.316-92.9 50.316v-.12h-.479c-35.092-.238-68.396-20.747-92.423-51.984-22.127-28.858-36.638-67.608-36.638-107.554 0-36.363 14.51-69.396 38.184-93.363 23.669-24.08 56.38-38.987 92.545-38.987v-.001z"/><path id="_459071184" class="fil18" d="M513.094 1166.14h-1.188v-.12h-.48c-35.092-.238-68.396-20.747-92.423-51.984-22.127-28.858-36.638-67.608-36.638-107.554 0-36.363 14.51-69.396 38.184-93.363 23.669-24.08 56.38-38.987 92.545-38.987v292.008z"/><path id="_459072816" class="fil19" d="M513.094 874.133h.595c35.921.122 68.4 15.021 91.952 38.988 23.55 23.967 38.182 57 38.182 93.363h-.121v.957c-.237 40.776-15.82 79.764-38.896 108.385-24.386 30.041-57.572 49.72-91.476 50.316h-.236V874.133z"/><path id="_459060840" class="fil13" d="M607.544 909.667c37.11 37.675 41.634 101.113 29.02 150.354-1.66-55.204-26.407-85.012-57.214-94.312-20.935-6.322-43.774 4.17-67.803.354-56.86-8.937-122.998-14.904-120.62 93.842-8.802-21.225-11.418-31.005-11.418-54.847 0-37.203 11.3-73.57 35.45-98.016 45.792-46.262 140.005-53.295 192.585 2.625z"/><path id="_459073440" class="fil7" d="M889.344 1213c92.43-39.23 183.666-41.258 279.783-.122l1.188 346.617h-282.76L889.343 1213z"/><path id="_459074184" class="fil10" d="m999.731 1302.79 55.909.11 32 198.29-57.33 73.93-56.033-73.93z"/><path id="_459054768" style="fill:#e0413f" d="M1029 1302.9h26.64l32 198.29-57.33 73.93-1.31-1.67v-.12z"/><path id="_459048336" class="fil10" d="m999.731 1302.79 29.269.11v270.43l-54.723-72.14z"/><path id="_459064608" d="M1028.16 1180.57c35.804 0 64.828 32.787 64.828 73.208.002 40.421-29.024 61.647-64.828 61.647-35.93-.001-64.947-21.226-64.947-61.647 0-40.42 29.018-73.208 64.947-73.208z" style="fill:#ee3f3e"/><path id="_459063600" class="fil13" d="m1168.89 1212.76 29.262 19.909c52.816 36.73 80.654 76.671 95.283 121.267 14.154 43.042 15.346 88.47 15.346 139.74v13.713l-10.704 8.23c-77.559 59.854-173.438 89.9-269.075 89.9-95.762 0-191.517-29.93-269.075-89.9l-10.825-8.347v-13.595c0-52.225 1.429-98.725 16.538-142.725 15.583-45.426 44.724-85.613 99.684-121.975l23.67-16.218 140.008 232.035 139.89-232.035z"/><path id="_459077616" class="fil14" d="M1036.37 1605.41c-2.375 0-4.754.117-7.254.117l.117-160.967 142.746-230.48-4.046 148.805-59 18.959 21.059 55.92c-26.65 3.1-73.993 112.084-93.622 167.647z"/><path id="_459059208" class="fil14" d="M1021.98 1605.41c2.38 0 4.759.117 7.137.117V1444.56l-142.746-230.48 4.046 148.805 59 18.959-21.054 55.92c26.529 3.1 73.992 112.084 93.617 167.647z"/><path id="_459057480" class="fil15" d="M1036.14 1605.41c-2.258 0-4.643.117-7.022.117l.117-160.967 138.941-230.48-4.52 146.06-57.455 18.961 20.46 55.922c-25.814 3.1-71.493 114.824-90.523 170.387h.002z"/><path id="_459061872" class="fil15" d="M1022.09 1605.41c2.383 0 4.762.117 7.02.117V1444.56l-138.938-230.48 4.518 146.06 57.342 18.961-20.463 55.922c25.934 3.1 71.491 114.824 90.52 170.387z"/><path id="_459072960" class="fil16" d="M1139.39 1196.43c12.729 5.846 28.545 14.546 22.124 27.067-20.815 39.942-42.224 76.43-73.511 111.25l-57.576-63.08 108.963-75.237z"/><path id="_459068160" class="fil16" d="M921.46 1196.43c-12.729 5.846-28.546 14.546-22.12 27.067 20.694 39.942 42.224 76.43 73.511 111.25l57.572-63.08-108.963-75.237z"/><path id="_459067920" class="fil25" d="M1029 866.862c50.08 0 95.522 20.746 128.471 54.25 32.83 33.267 53.05 79.176 53.05 129.73h-.117v1.191c-.357 56.754-22.004 110.888-54.125 150.597-34.258 42.445-81.24 69.867-129.066 69.867v-.237h-.595c-48.65-.238-95.042-28.734-128.23-72.017-30.808-40.18-51.03-93.96-51.03-149.4 0-50.555 20.222-96.463 53.05-129.73 32.955-33.504 78.393-54.25 128.592-54.25z"/><path id="_459068832" class="fil25" d="M1029 1272.5h-1.787v-.237h-.595c-48.651-.238-95.042-28.734-128.23-72.017-30.808-40.18-51.03-93.96-51.03-149.4 0-50.675 20.222-96.463 53.05-129.73 32.955-33.504 78.393-54.25 128.592-54.25V1272.5z"/><path id="_459071448" d="M1029 866.862h.834c49.841.237 94.92 20.985 127.637 54.25 32.83 33.267 53.05 79.055 53.05 129.73h-.117v1.191c-.358 56.754-22.004 110.888-54.125 150.597-33.783 41.845-79.82 69.033-126.92 69.867H1029V866.862z" style="fill:#fdd4a8"/><path id="_459072792" class="fil13" d="M1160.2 916.347c51.508 52.34 62.333 123.882 44.845 192.441 3.096-131.754-201.27-54.846-236.72-183.025-.713 105.404-101.464 56.042-97.896 209.496l-7.613 8.825c-12.254-29.571-19.27-62.12-19.27-95.266 0-51.63 15.7-102.071 49.129-136.054 32.233-32.667 41.75-23.13 59.358-28.614 6.78-2.024 6.541-7.749 16.77-13.95 66.734-40.66 143.696-4.653 191.396 46.147h.001z"/></g></g></svg>