<svg version="1.1" id="Layer_1" xmlns="http://www.w3.org/2000/svg" xmlns:xlink="http://www.w3.org/1999/xlink" x="0px" y="0px"
	 width="100%" viewBox="0 0 1742 268" enable-background="new 0 0 1742 268" xml:space="preserve">
<path fill="#010101" opacity="1.000000" stroke="none" 
	d="
M1294.000000,269.000000 
	C862.720215,269.000000 431.940430,269.000000 1.080313,269.000000 
	C1.080313,179.731369 1.080313,90.462654 1.080313,1.096966 
	C581.666687,1.096966 1162.333374,1.096966 1742.971924,1.096966 
	C1742.971924,90.393013 1742.971924,179.696518 1742.971924,269.000000 
	C1593.462524,269.000000 1443.981323,269.000000 1294.000000,269.000000 
M137.997772,52.244522 
	C138.004074,51.555370 138.010391,50.866219 138.800369,50.003742 
	C156.364212,46.754940 173.928055,43.506138 192.843277,40.007374 
	C181.442566,40.720917 171.351837,41.172169 161.294128,42.016628 
	C133.907791,44.316010 107.285133,50.012691 82.072411,61.193642 
	C64.762077,68.870155 48.303326,78.112495 35.981190,92.944969 
	C26.488411,104.371689 21.263582,117.484154 23.889256,132.732880 
	C26.459124,147.657501 35.212353,158.874420 46.324505,168.336014 
	C66.123123,185.193787 89.795212,194.537659 114.205643,202.240646 
	C137.163300,209.485214 160.795700,213.416550 184.688126,215.786880 
	C193.904251,216.701187 203.193588,216.877380 212.708038,217.404175 
	C212.708038,208.222137 212.708038,199.833115 212.708038,191.531693 
	C197.853683,190.007187 183.261414,188.865479 168.772293,186.945450 
	C141.974854,183.394363 115.595383,177.944229 90.625755,167.129532 
	C76.744499,161.117355 63.839108,153.575821 54.162113,141.585770 
	C41.343842,125.703613 37.673717,102.688599 57.017910,84.602432 
	C66.147606,76.066467 76.528145,69.580276 87.965698,64.768303 
	C91.849800,63.134182 96.054146,62.261265 99.837631,61.701668 
	C95.873619,64.556297 91.743126,67.208008 87.974045,70.300240 
	C70.479164,84.653351 67.080650,102.293930 77.610962,122.301598 
	C86.529678,139.247208 101.190590,149.466553 118.066605,157.037750 
	C141.282440,167.453247 165.980179,171.701904 191.093262,173.980957 
	C198.287842,174.633881 205.527969,174.785034 212.765945,175.167252 
	C212.765945,168.027069 212.765945,161.763962 212.765945,155.004745 
	C210.573502,155.004745 208.615814,155.066879 206.663040,154.995285 
	C182.292297,154.101791 158.217392,151.385513 135.174271,142.792465 
	C119.677277,137.013443 105.623833,129.003098 95.317848,115.599594 
	C85.935661,103.397522 84.938232,91.249268 94.238251,80.036697 
	C100.012215,73.075310 107.994492,67.945557 115.390556,62.000515 
	C115.677986,61.933250 115.874657,61.761852 116.419998,61.107773 
	C116.609619,61.070042 116.799240,61.032314 117.563370,61.045116 
	C117.753990,61.020172 117.944618,60.995232 118.132591,61.683498 
	C117.697296,62.150810 117.296272,62.656563 116.821671,63.079803 
	C105.549980,73.131752 101.379120,85.422653 110.347496,99.205406 
	C117.172684,109.694473 126.729546,116.581276 137.712799,121.686020 
	C157.112549,130.702545 177.955185,133.867355 199.007980,135.847946 
	C203.541519,136.274460 208.149460,135.910202 212.610016,135.910202 
	C212.610016,131.249298 212.610016,127.344521 212.610016,123.910789 
	C198.889709,121.895912 185.544510,120.376610 172.381897,117.890587 
	C156.278137,114.849052 140.573715,110.168335 128.030975,98.898079 
	C118.951027,90.739304 114.346298,80.309845 123.720856,68.281082 
	C129.115173,61.359467 136.034027,56.751045 143.847015,53.190395 
	C144.729721,52.788109 145.538544,52.223652 146.381622,51.734398 
	C146.233749,51.382748 146.085876,51.031094 145.938004,50.679443 
	C143.295883,51.430393 140.653763,52.181343 137.997772,52.244522 
M377.616180,122.893478 
	C377.601685,125.882698 377.574982,128.871918 377.574585,131.861145 
	C377.571259,157.271790 377.596527,182.682510 377.504944,208.092819 
	C377.500183,209.415802 376.512085,210.735245 376.018402,211.270767 
	C374.657043,206.864258 373.295685,202.457748 371.938141,198.063599 
	C365.753540,199.876419 363.411743,199.285110 363.153137,195.175659 
	C362.709717,188.129868 363.030670,181.035965 363.030670,173.746796 
	C366.930511,173.746796 370.396301,173.746796 374.132629,173.746796 
	C374.132629,168.761414 374.132629,164.004761 374.132629,158.902527 
	C370.336304,158.902527 366.723419,158.902527 362.625244,158.902527 
	C362.625244,151.839508 362.625244,145.105804 362.625244,138.443695 
	C355.908691,138.443695 349.693512,138.443695 343.153137,138.443695 
	C343.153137,145.409088 343.153137,152.009979 343.153137,159.206039 
	C337.065338,158.612274 331.182526,156.924210 325.726593,157.824097 
	C320.418823,158.699570 315.548309,162.226166 310.483521,164.589737 
	C310.385529,163.199692 310.247803,161.245819 310.110504,159.297577 
	C303.664673,159.297577 297.439026,159.297577 291.306763,159.297577 
	C291.306763,177.996857 291.306763,196.390060 291.306763,214.842438 
	C297.713379,214.842438 303.826874,214.842438 310.315521,214.842438 
	C310.315521,206.211807 310.304962,197.740448 310.317963,189.269135 
	C310.338623,175.816772 318.650116,170.601227 330.754272,176.421066 
	C331.128845,176.601181 331.585846,176.609940 332.041138,176.706345 
	C332.880981,175.132385 333.644104,173.702316 333.992371,173.049622 
	C337.312988,173.486984 340.056763,173.848373 343.769745,174.337418 
	C343.769745,182.824677 343.001007,191.517258 343.936584,200.022369 
	C345.657898,215.670792 362.942902,222.312256 376.831818,212.650925 
	C377.727295,213.434235 378.599365,214.862137 379.522064,214.895660 
	C385.269073,215.104355 391.027435,215.000854 396.941162,215.000854 
	C396.941162,204.192337 396.860168,194.049347 396.970947,183.908447 
	C397.039459,177.637436 402.407257,172.416840 408.421539,172.460190 
	C414.035797,172.500656 418.010773,176.853806 418.235535,183.448380 
	C418.382935,187.772919 418.282562,192.106064 418.285461,196.435349 
	C418.289520,202.542084 418.286499,208.648834 418.286499,214.660965 
	C425.115967,214.660965 431.346313,214.660965 437.750671,214.660965 
	C437.750671,202.015579 437.954193,189.709808 437.681519,177.414597 
	C437.488953,168.731049 432.970886,162.769577 424.785065,159.642075 
	C415.591492,156.129562 406.917297,156.263184 399.086548,163.036423 
	C398.575165,163.478745 397.855286,163.680054 396.704376,164.259155 
	C396.704376,149.541565 396.704376,135.451630 396.704376,121.234795 
	C390.571411,121.234795 384.777374,121.234795 378.403809,121.123093 
	C378.248840,121.417137 378.093872,121.711189 377.616180,122.893478 
M1159.607056,212.340866 
	C1159.607056,207.380341 1159.607056,202.419815 1159.607056,197.018494 
	C1149.153442,197.018494 1139.076172,197.018494 1128.841919,197.018494 
	C1128.841919,190.830688 1128.841919,185.094070 1128.841919,178.916397 
	C1138.608643,178.916397 1148.187256,178.916397 1157.960083,178.916397 
	C1157.960083,172.745880 1157.960083,167.017365 1157.960083,160.843384 
	C1148.164795,160.843384 1138.584839,160.843384 1128.942139,160.843384 
	C1128.942139,154.679871 1128.942139,148.966629 1128.942139,142.764786 
	C1139.285278,142.764786 1149.340088,142.764786 1159.435303,142.764786 
	C1159.435303,136.663101 1159.435303,131.058395 1159.435303,125.297821 
	C1142.207886,125.297821 1125.192139,125.297821 1108.321533,125.297821 
	C1108.321533,155.356247 1108.321533,185.078873 1108.321533,214.736343 
	C1125.415283,214.736343 1142.205933,214.736343 1159.921631,214.905197 
	C1166.411255,214.938843 1172.909180,215.162949 1179.385376,214.883270 
	C1181.192017,214.805237 1183.398926,213.651138 1184.618530,212.277252 
	C1188.201050,208.241348 1191.379761,203.846924 1194.993896,199.239334 
	C1198.640381,203.938034 1201.810669,208.181747 1205.178711,212.262070 
	C1206.134644,213.420181 1207.640137,214.831863 1208.940186,214.880692 
	C1215.847168,215.139969 1222.768921,215.002594 1230.608276,215.002594 
	C1222.322998,204.826599 1214.611206,195.354919 1206.780884,185.737747 
	C1213.506226,176.943924 1220.112671,168.305740 1227.234253,158.993866 
	C1220.316040,158.993866 1214.212402,158.763275 1208.144653,159.128326 
	C1206.215332,159.244400 1203.958984,160.548737 1202.592285,162.004227 
	C1199.821777,164.954666 1197.556641,168.379623 1194.896484,171.852570 
	C1191.979126,167.968918 1189.543091,164.605499 1186.958618,161.360168 
	C1186.198364,160.405548 1185.036743,159.144058 1184.027710,159.115051 
	C1177.156616,158.917496 1170.277222,159.011642 1162.681152,159.011642 
	C1169.851562,168.398499 1176.455688,177.044022 1183.114624,185.761337 
	C1175.842407,194.667145 1168.820557,203.303085 1161.728149,211.880814 
	C1161.174316,212.550766 1160.128662,212.814087 1159.607056,212.340866 
M989.948608,212.943512 
	C990.380798,219.359833 988.499939,224.676041 982.004700,226.931870 
	C973.859131,229.760849 966.638306,228.019531 960.812683,221.123947 
	C955.642700,223.699066 950.557312,226.232025 945.408630,228.796539 
	C948.396423,235.525681 952.963318,239.634247 959.087646,242.078400 
	C966.866760,245.182999 974.998108,245.800858 983.148438,244.541916 
	C1001.132507,241.764008 1009.154785,232.194992 1009.181335,214.008316 
	C1009.205872,197.184052 1009.186951,180.359711 1009.187195,163.535416 
	C1009.187195,162.110046 1009.187195,160.684692 1009.187195,159.132812 
	C1002.494263,159.132812 996.370361,159.132812 990.158997,159.132812 
	C990.016357,160.645905 989.885681,162.031845 989.708435,163.911545 
	C988.765015,163.218491 988.270630,162.831711 987.753235,162.478699 
	C977.990234,155.817276 965.588562,155.592926 956.354492,161.906281 
	C946.453064,168.675873 941.651306,181.723297 944.486267,194.155182 
	C947.257996,206.309952 955.808899,214.500549 967.307617,216.273392 
	C975.317749,217.508392 982.708313,215.791733 989.948608,212.943512 
M1578.504517,143.573624 
	C1584.687256,144.881073 1590.869873,146.188507 1597.621338,147.616211 
	C1599.959717,142.918396 1602.739014,137.334900 1605.474731,131.839127 
	C1591.027100,120.661774 1559.005981,117.601448 1538.927368,140.221344 
	C1522.562744,158.656921 1523.566284,184.919601 1541.212646,202.275314 
	C1558.189819,218.972977 1590.237061,221.874817 1605.384766,207.855423 
	C1602.615479,202.335693 1599.808472,196.740677 1596.937378,191.017868 
	C1587.771606,196.799408 1578.251343,197.637360 1568.399170,194.933960 
	C1558.435425,192.199905 1550.887695,183.106461 1549.835693,173.056335 
	C1548.122925,156.693237 1559.077393,145.075439 1578.504517,143.573624 
M792.405884,144.448135 
	C801.678833,142.478302 810.437561,143.866776 818.765320,148.845520 
	C821.690002,142.972656 824.478394,137.373383 827.229431,131.849182 
	C813.339111,120.932419 781.777954,117.492996 761.414307,139.380692 
	C744.832214,157.203827 744.890564,182.810837 761.468567,200.756485 
	C777.984619,218.634918 809.393982,222.232483 827.231750,208.066147 
	C824.459045,202.512009 821.657043,196.899277 818.734558,191.045258 
	C811.870850,195.338943 804.611694,196.833069 796.777588,196.171280 
	C782.861328,194.995697 772.717957,185.426254 771.320435,171.872040 
	C770.079163,159.834396 778.588989,148.445984 792.405884,144.448135 
M233.017807,210.373367 
	C233.017807,211.815109 233.017807,213.256866 233.017807,214.757446 
	C250.424057,214.757446 267.330505,214.757446 284.368011,214.757446 
	C284.368011,208.765564 284.368011,203.024246 284.368011,196.862076 
	C273.996429,196.862076 263.896088,196.862076 253.944824,196.862076 
	C253.944824,190.689499 253.944824,184.945908 253.944824,178.763229 
	C263.816162,178.763229 273.398315,178.763229 282.861908,178.763229 
	C282.861908,172.570389 282.861908,166.834244 282.861908,160.647858 
	C272.975739,160.647858 263.409576,160.647858 253.857224,160.647858 
	C253.857224,154.579620 253.857224,148.975616 253.857224,142.902222 
	C264.129364,142.902222 274.201599,142.902222 284.346863,142.902222 
	C284.346863,136.681305 284.346863,130.938614 284.346863,125.235626 
	C267.127167,125.235626 250.209122,125.235626 233.017807,125.235626 
	C233.017807,153.470551 233.017807,181.432480 233.017807,210.373367 
M1275.375244,216.039230 
	C1287.616211,213.116714 1294.598633,204.902466 1296.694824,193.009201 
	C1298.860229,180.723770 1295.791748,169.489227 1284.971191,162.192963 
	C1273.459106,154.430298 1261.883667,155.776550 1250.927979,164.898392 
	C1250.927979,162.697327 1250.927979,161.048355 1250.927979,159.286530 
	C1244.533691,159.286530 1238.298706,159.286530 1231.868652,159.286530 
	C1231.868652,173.538513 1231.868652,187.502136 1231.868652,201.465759 
	C1231.868652,215.381378 1231.868652,229.297012 1231.868652,243.043732 
	C1238.619019,243.043732 1244.700073,243.043732 1251.176514,243.043732 
	C1251.176514,232.064697 1251.176514,221.361008 1251.176514,210.012253 
	C1258.464355,215.746094 1266.092041,217.680603 1275.375244,216.039230 
M891.186890,199.497650 
	C891.186890,186.077179 891.186890,172.656708 891.186890,159.141266 
	C884.457764,159.141266 878.329041,159.141266 872.172058,159.141266 
	C872.020691,160.675919 871.883362,162.068863 871.728455,163.639191 
	C856.280151,152.529007 840.351196,157.932678 833.087952,166.526199 
	C823.520691,177.845764 823.239685,195.788986 832.767700,207.068192 
	C836.882202,211.938873 842.009644,215.024750 848.376221,216.155472 
	C857.296753,217.739777 865.038086,215.413895 872.060913,208.907135 
	C872.060913,211.288757 872.060913,212.930695 872.060913,214.721313 
	C878.493896,214.721313 884.739441,214.721313 891.186890,214.721313 
	C891.186890,209.793320 891.186890,205.145065 891.186890,199.497650 
M1634.003906,157.552017 
	C1632.681274,157.710342 1631.351318,157.822861 1630.037109,158.033997 
	C1615.593872,160.354675 1604.577515,171.991302 1604.040039,185.475510 
	C1603.445068,200.395981 1612.525391,212.368546 1627.813721,215.439484 
	C1633.715454,216.624954 1640.138428,216.611847 1646.117188,215.735046 
	C1659.881226,213.716537 1670.307373,202.315857 1671.016724,189.662842 
	C1671.843628,174.914001 1663.630249,163.100082 1649.155762,159.108093 
	C1644.588867,157.848587 1639.644775,157.956482 1634.003906,157.552017 
M1017.121155,202.227493 
	C1027.244385,216.101501 1046.597778,220.907181 1062.767578,213.357910 
	C1072.843262,208.653900 1079.109009,200.949921 1080.002319,189.550766 
	C1080.960083,177.328537 1075.666382,168.266510 1065.345703,162.120834 
	C1057.102783,157.212418 1048.052979,156.492493 1038.764771,158.070099 
	C1017.430847,161.693695 1006.950195,182.477890 1017.121155,202.227493 
M593.071045,181.125000 
	C593.071045,192.361755 593.071045,203.598526 593.071045,214.786194 
	C600.129517,214.786194 606.240967,214.786194 612.600342,214.786194 
	C612.600342,201.628281 612.924377,188.677109 612.477722,175.752579 
	C612.213684,168.111862 607.622192,162.891266 600.551697,159.942734 
	C590.367615,155.695786 580.865051,156.359451 572.107300,164.729507 
	C571.980042,162.281342 571.899963,160.740585 571.817139,159.146591 
	C565.264404,159.146591 559.140198,159.146591 552.791809,159.146591 
	C552.791809,177.725281 552.791809,196.150803 552.791809,214.745209 
	C559.175049,214.745209 565.396301,214.745209 571.940063,214.745209 
	C571.940063,204.528503 571.900574,194.570038 571.954712,184.612061 
	C571.987915,178.491638 575.684082,173.873596 581.247864,172.775955 
	C586.766174,171.687271 590.114746,173.830093 593.071045,181.125000 
M1368.944580,189.772308 
	C1381.515991,189.772308 1394.087402,189.772308 1406.593750,189.772308 
	C1407.765259,172.520905 1398.732422,160.291321 1383.704224,157.969971 
	C1365.808228,155.205612 1350.493164,164.562393 1346.812012,180.509460 
	C1343.540527,194.682693 1351.040649,208.732742 1364.885498,214.366455 
	C1379.612671,220.359268 1397.727783,214.982727 1405.570435,201.952072 
	C1401.023071,199.648590 1396.504150,197.359451 1392.022827,195.089432 
	C1390.411133,196.446869 1389.103027,197.737595 1387.615356,198.769699 
	C1380.171387,203.933746 1368.802490,200.992386 1366.771362,193.300049 
	C1366.509399,192.307877 1367.591919,190.960724 1368.944580,189.772308 
M645.513184,189.771393 
	C655.613342,189.771393 665.713440,189.771393 676.643066,189.771393 
	C675.832703,184.649734 675.616577,180.116913 674.351868,175.898438 
	C670.900879,164.387787 660.317505,157.507950 646.563660,157.301010 
	C633.535400,157.104996 621.306458,165.308594 616.991028,177.139374 
	C611.826538,191.297913 618.329468,206.748047 632.333679,213.591843 
	C646.994507,220.756500 666.520630,215.558365 674.854858,201.962814 
	C670.307922,199.659012 665.790405,197.370178 661.188904,195.038742 
	C655.416626,201.234512 648.725464,203.026428 641.159973,199.581360 
	C637.291138,197.819550 635.224609,194.602264 635.815552,189.771393 
	C638.888184,189.771393 641.702087,189.771393 645.513184,189.771393 
M483.503998,214.998947 
	C495.723938,214.998947 507.943878,214.998947 520.062073,214.998947 
	C520.062073,208.651352 520.062073,203.039444 520.062073,196.993317 
	C509.822388,196.993317 499.756226,196.993317 489.303955,196.993317 
	C489.303955,172.849701 489.303955,149.141052 489.303955,125.201866 
	C482.352051,125.201866 475.794189,125.201866 469.220337,125.201866 
	C469.220337,155.226868 469.220337,185.036804 469.220337,214.998947 
	C473.879486,214.998947 478.193115,214.998947 483.503998,214.998947 
M1454.301636,198.324066 
	C1454.779785,190.203781 1450.420654,185.178940 1443.524048,182.037415 
	C1439.914429,180.393234 1435.946777,179.523834 1432.372803,177.818176 
	C1430.882568,177.106918 1429.996582,175.129715 1428.835815,173.728119 
	C1430.371704,172.811386 1431.976562,171.024292 1433.430664,171.139526 
	C1437.973022,171.499542 1442.458252,172.578384 1447.536865,173.480011 
	C1449.274292,169.989578 1451.293335,165.933563 1453.420166,161.660889 
	C1442.925415,156.985916 1432.718628,155.843201 1422.315674,159.281815 
	C1415.507446,161.532227 1410.974731,166.167572 1410.211914,173.651138 
	C1409.480713,180.826050 1412.982056,185.819870 1419.000854,189.107651 
	C1422.622314,191.085800 1426.667236,192.301895 1430.235840,194.357025 
	C1431.820435,195.269562 1432.698486,197.409103 1433.897217,198.991730 
	C1432.063232,200.064819 1430.306519,201.809509 1428.374634,202.031616 
	C1426.226318,202.278625 1423.801392,201.415817 1421.709717,200.532166 
	C1419.069580,199.416840 1416.644409,197.792068 1413.910645,196.266541 
	C1411.362793,200.559189 1408.928833,204.659912 1406.243164,209.184601 
	C1408.078979,210.454056 1409.562622,211.772919 1411.279175,212.618744 
	C1421.508789,217.659073 1432.102661,217.922623 1442.773560,214.361862 
	C1449.956055,211.965134 1453.919800,206.828201 1454.301636,198.324066 
M1460.864014,166.533737 
	C1456.195435,175.935974 1458.029541,183.369553 1466.777466,188.822113 
	C1470.127808,190.910294 1473.929810,192.291031 1477.573242,193.886047 
	C1480.078125,194.982666 1483.243774,196.134918 1481.750854,199.345673 
	C1481.026855,200.902786 1477.493652,202.403351 1475.703735,201.972137 
	C1471.031372,200.846497 1466.619263,198.641312 1461.839966,196.763168 
	C1459.580688,200.583542 1457.076904,204.817520 1454.460693,209.241562 
	C1465.015381,217.149643 1476.278076,218.085815 1488.079102,215.248520 
	C1497.445923,212.996460 1501.801147,207.948349 1502.638794,199.214874 
	C1503.385132,191.432724 1499.719360,185.634338 1491.211060,181.786026 
	C1487.594116,180.150070 1483.620483,179.294632 1480.030884,177.611252 
	C1478.696167,176.985291 1477.995361,175.007401 1477.005493,173.646011 
	C1478.418091,172.762070 1479.901733,171.034348 1481.230469,171.146255 
	C1485.949341,171.543640 1490.615479,172.568298 1495.829834,173.444092 
	C1497.517822,169.982620 1499.509277,165.899017 1501.718506,161.368805 
	C1498.090210,160.224625 1495.164551,158.912003 1492.105591,158.407059 
	C1480.808838,156.542313 1469.766968,156.168152 1460.864014,166.533737 
M679.572571,189.499664 
	C679.572571,197.931870 679.572571,206.364075 679.572571,214.635529 
	C686.379761,214.635529 692.608643,214.635529 698.936279,214.635529 
	C698.936279,205.454712 698.906067,196.641922 698.943909,187.829437 
	C698.991882,176.679642 706.504272,171.443390 716.942993,175.267914 
	C718.121826,175.699799 719.226990,176.332687 720.518005,176.944229 
	C723.197815,171.474442 725.729309,166.307358 728.408691,160.838425 
	C717.066956,154.730682 707.579773,156.994247 698.805054,166.759354 
	C698.805054,163.514465 698.805054,161.426559 698.805054,159.299103 
	C692.282166,159.299103 686.069763,159.299103 679.572632,159.299103 
	C679.572632,169.232956 679.572632,178.866302 679.572571,189.499664 
M1301.019287,198.498291 
	C1301.019287,203.923080 1301.019287,209.347885 1301.019287,214.641403 
	C1307.801392,214.641403 1314.009644,214.641403 1320.307739,214.641403 
	C1320.307739,205.463379 1320.235840,196.645782 1320.325806,187.829849 
	C1320.439453,176.701157 1328.044922,171.465149 1338.440674,175.278519 
	C1339.606445,175.706177 1340.702271,176.324554 1342.008911,176.938217 
	C1344.684326,171.493652 1347.218628,166.336487 1349.910767,160.858109 
	C1338.607300,154.648773 1329.139038,157.067734 1320.483398,166.532272 
	C1320.337891,163.443863 1320.240112,161.367737 1320.143066,159.307571 
	C1313.659424,159.307571 1307.431274,159.307571 1301.019287,159.307571 
	C1301.019287,172.244278 1301.019287,184.871490 1301.019287,198.498291 
M918.073914,191.619034 
	C918.074280,190.287628 918.059631,188.956024 918.077332,187.624847 
	C918.218079,177.018433 925.340271,171.834030 935.416443,175.045303 
	C936.898560,175.517654 938.299500,176.244888 939.824890,176.890991 
	C942.508850,171.363586 945.020020,166.191940 947.641907,160.792435 
	C936.183777,154.731934 926.663696,157.049591 917.872437,167.033432 
	C917.872437,163.438782 917.872437,161.349243 917.872437,159.355423 
	C911.369995,159.355423 905.151794,159.355423 899.216064,159.355423 
	C899.216064,178.093613 899.216064,196.473511 899.216064,214.736649 
	C905.650818,214.736649 911.735168,214.736649 918.073914,214.736649 
	C918.073914,207.178879 918.073914,199.883560 918.073914,191.619034 
M525.024414,205.463898 
	C525.024414,208.569458 525.024414,211.675018 525.024414,214.625488 
	C531.800659,214.625488 538.007019,214.625488 544.111450,214.625488 
	C544.111450,195.974503 544.111450,177.698639 544.111450,159.287048 
	C537.702820,159.287048 531.481812,159.287048 525.024414,159.287048 
	C525.024414,174.540436 525.024414,189.507782 525.024414,205.463898 
M1674.979614,206.101776 
	C1677.781372,215.821701 1687.017822,219.698349 1694.507690,214.298019 
	C1699.363037,210.797195 1701.116577,204.694427 1698.829468,199.258438 
	C1696.543579,193.825790 1690.568237,190.795197 1684.488159,191.984848 
	C1678.657349,193.125748 1675.111084,198.055435 1674.979614,206.101776 
M523.689270,137.051529 
	C525.303711,144.537888 530.743530,148.420746 537.604248,146.983856 
	C543.350525,145.780365 547.131836,139.944351 546.153687,133.788773 
	C545.285339,128.323502 540.042603,124.116287 534.465698,124.409309 
	C528.312195,124.732620 524.332520,129.093201 523.689270,137.051529 
z"/>
<path fill="#EB0102" opacity="1.000000" stroke="none" 
	d="
M100.112160,61.040512 
	C96.054146,62.261265 91.849800,63.134182 87.965698,64.768303 
	C76.528145,69.580276 66.147606,76.066467 57.017910,84.602432 
	C37.673717,102.688599 41.343842,125.703613 54.162113,141.585770 
	C63.839108,153.575821 76.744499,161.117355 90.625755,167.129532 
	C115.595383,177.944229 141.974854,183.394363 168.772293,186.945450 
	C183.261414,188.865479 197.853683,190.007187 212.708038,191.531693 
	C212.708038,199.833115 212.708038,208.222137 212.708038,217.404175 
	C203.193588,216.877380 193.904251,216.701187 184.688126,215.786880 
	C160.795700,213.416550 137.163300,209.485214 114.205643,202.240646 
	C89.795212,194.537659 66.123123,185.193787 46.324505,168.336014 
	C35.212353,158.874420 26.459124,147.657501 23.889256,132.732880 
	C21.263582,117.484154 26.488411,104.371689 35.981190,92.944969 
	C48.303326,78.112495 64.762077,68.870155 82.072411,61.193642 
	C107.285133,50.012691 133.907791,44.316010 161.294128,42.016628 
	C171.351837,41.172169 181.442566,40.720917 192.843277,40.007374 
	C173.928055,43.506138 156.364212,46.754940 138.147629,50.043861 
	C137.321686,50.118927 137.148468,50.153870 136.558212,50.095825 
	C123.563522,51.828110 111.461464,55.205750 100.112160,61.040512 
z"/>
<path fill="#FCFCFC" opacity="1.000000" stroke="none" 
	d="
M989.865845,212.544952 
	C982.708313,215.791733 975.317749,217.508392 967.307617,216.273392 
	C955.808899,214.500549 947.257996,206.309952 944.486267,194.155182 
	C941.651306,181.723297 946.453064,168.675873 956.354492,161.906281 
	C965.588562,155.592926 977.990234,155.817276 987.753235,162.478699 
	C988.270630,162.831711 988.765015,163.218491 989.708435,163.911545 
	C989.885681,162.031845 990.016357,160.645905 990.158997,159.132812 
	C996.370361,159.132812 1002.494263,159.132812 1009.187195,159.132812 
	C1009.187195,160.684692 1009.187195,162.110046 1009.187195,163.535416 
	C1009.186951,180.359711 1009.205872,197.184052 1009.181335,214.008316 
	C1009.154785,232.194992 1001.132507,241.764008 983.148438,244.541916 
	C974.998108,245.800858 966.866760,245.182999 959.087646,242.078400 
	C952.963318,239.634247 948.396423,235.525681 945.408630,228.796539 
	C950.557312,226.232025 955.642700,223.699066 960.812683,221.123947 
	C966.638306,228.019531 973.859131,229.760849 982.004700,226.931870 
	C988.499939,224.676041 990.380798,219.359833 989.865845,212.544952 
M990.240356,186.573288 
	C989.353577,183.965057 988.989685,180.992065 987.475525,178.821518 
	C983.883606,173.672501 976.554565,172.405579 970.974121,175.429932 
	C965.501221,178.395966 963.059937,184.785248 964.925110,191.260986 
	C966.687012,197.378357 972.209351,200.751831 979.232483,200.001129 
	C985.590820,199.321457 989.479614,194.881683 990.240356,186.573288 
z"/>
<path fill="#E6FA02" opacity="1.000000" stroke="none" 
	d="
M99.974899,61.371090 
	C111.461464,55.205750 123.563522,51.828110 136.415924,50.408348 
	C130.649261,53.872284 124.607811,56.930714 118.477959,59.960648 
	C118.389549,59.932159 118.302521,60.096291 118.026382,60.157749 
	C117.496445,60.477665 117.242645,60.736126 116.988853,60.994587 
	C116.799240,61.032314 116.609619,61.070042 115.996506,61.276863 
	C115.300713,61.546471 115.104904,61.729050 114.985580,61.993683 
	C107.994492,67.945557 100.012215,73.075310 94.238251,80.036697 
	C84.938232,91.249268 85.935661,103.397522 95.317848,115.599594 
	C105.623833,129.003098 119.677277,137.013443 135.174271,142.792465 
	C158.217392,151.385513 182.292297,154.101791 206.663040,154.995285 
	C208.615814,155.066879 210.573502,155.004745 212.765945,155.004745 
	C212.765945,161.763962 212.765945,168.027069 212.765945,175.167252 
	C205.527969,174.785034 198.287842,174.633881 191.093262,173.980957 
	C165.980179,171.701904 141.282440,167.453247 118.066605,157.037750 
	C101.190590,149.466553 86.529678,139.247208 77.610962,122.301598 
	C67.080650,102.293930 70.479164,84.653351 87.974045,70.300240 
	C91.743126,67.208008 95.873619,64.556297 99.974899,61.371090 
z"/>
<path fill="#FBFBFB" opacity="1.000000" stroke="none" 
	d="
M1578.039307,143.605850 
	C1559.077393,145.075439 1548.122925,156.693237 1549.835693,173.056335 
	C1550.887695,183.106461 1558.435425,192.199905 1568.399170,194.933960 
	C1578.251343,197.637360 1587.771606,196.799408 1596.937378,191.017868 
	C1599.808472,196.740677 1602.615479,202.335693 1605.384766,207.855423 
	C1590.237061,221.874817 1558.189819,218.972977 1541.212646,202.275314 
	C1523.566284,184.919601 1522.562744,158.656921 1538.927368,140.221344 
	C1559.005981,117.601448 1591.027100,120.661774 1605.474731,131.839127 
	C1602.739014,137.334900 1599.959717,142.918396 1597.621338,147.616211 
	C1590.869873,146.188507 1584.687256,144.881073 1578.039307,143.605850 
z"/>
<path fill="#FBFBFB" opacity="1.000000" stroke="none" 
	d="
M792.006165,144.585968 
	C778.588989,148.445984 770.079163,159.834396 771.320435,171.872040 
	C772.717957,185.426254 782.861328,194.995697 796.777588,196.171280 
	C804.611694,196.833069 811.870850,195.338943 818.734558,191.045258 
	C821.657043,196.899277 824.459045,202.512009 827.231750,208.066147 
	C809.393982,222.232483 777.984619,218.634918 761.468567,200.756485 
	C744.890564,182.810837 744.832214,157.203827 761.414307,139.380692 
	C781.777954,117.492996 813.339111,120.932419 827.229431,131.849182 
	C824.478394,137.373383 821.690002,142.972656 818.765320,148.845520 
	C810.437561,143.866776 801.678833,142.478302 792.006165,144.585968 
z"/>
<path fill="#FCFCFC" opacity="1.000000" stroke="none" 
	d="
M233.017807,209.883881 
	C233.017807,181.432480 233.017807,153.470551 233.017807,125.235626 
	C250.209122,125.235626 267.127167,125.235626 284.346863,125.235626 
	C284.346863,130.938614 284.346863,136.681305 284.346863,142.902222 
	C274.201599,142.902222 264.129364,142.902222 253.857224,142.902222 
	C253.857224,148.975616 253.857224,154.579620 253.857224,160.647858 
	C263.409576,160.647858 272.975739,160.647858 282.861908,160.647858 
	C282.861908,166.834244 282.861908,172.570389 282.861908,178.763229 
	C273.398315,178.763229 263.816162,178.763229 253.944824,178.763229 
	C253.944824,184.945908 253.944824,190.689499 253.944824,196.862076 
	C263.896088,196.862076 273.996429,196.862076 284.368011,196.862076 
	C284.368011,203.024246 284.368011,208.765564 284.368011,214.757446 
	C267.330505,214.757446 250.424057,214.757446 233.017807,214.757446 
	C233.017807,213.256866 233.017807,211.815109 233.017807,209.883881 
z"/>
<path fill="#FDFDFD" opacity="1.000000" stroke="none" 
	d="
M1158.996704,214.736343 
	C1142.205933,214.736343 1125.415283,214.736343 1108.321533,214.736343 
	C1108.321533,185.078873 1108.321533,155.356247 1108.321533,125.297821 
	C1125.192139,125.297821 1142.207886,125.297821 1159.435303,125.297821 
	C1159.435303,131.058395 1159.435303,136.663101 1159.435303,142.764786 
	C1149.340088,142.764786 1139.285278,142.764786 1128.942139,142.764786 
	C1128.942139,148.966629 1128.942139,154.679871 1128.942139,160.843384 
	C1138.584839,160.843384 1148.164795,160.843384 1157.960083,160.843384 
	C1157.960083,167.017365 1157.960083,172.745880 1157.960083,178.916397 
	C1148.187256,178.916397 1138.608643,178.916397 1128.841919,178.916397 
	C1128.841919,185.094070 1128.841919,190.830688 1128.841919,197.018494 
	C1139.076172,197.018494 1149.153442,197.018494 1159.607056,197.018494 
	C1159.607056,202.419815 1159.607056,207.380341 1159.358398,212.966934 
	C1159.072021,213.974121 1159.034424,214.355240 1158.996704,214.736343 
z"/>
<path fill="#FBFBFB" opacity="1.000000" stroke="none" 
	d="
M375.946350,212.797974 
	C362.942902,222.312256 345.657898,215.670792 343.936584,200.022369 
	C343.001007,191.517258 343.769745,182.824677 343.769745,174.337418 
	C340.056763,173.848373 337.312988,173.486984 333.992371,173.049622 
	C333.644104,173.702316 332.880981,175.132385 332.041138,176.706345 
	C331.585846,176.609940 331.128845,176.601181 330.754272,176.421066 
	C318.650116,170.601227 310.338623,175.816772 310.317963,189.269135 
	C310.304962,197.740448 310.315521,206.211807 310.315521,214.842438 
	C303.826874,214.842438 297.713379,214.842438 291.306763,214.842438 
	C291.306763,196.390060 291.306763,177.996857 291.306763,159.297577 
	C297.439026,159.297577 303.664673,159.297577 310.110504,159.297577 
	C310.247803,161.245819 310.385529,163.199692 310.483521,164.589737 
	C315.548309,162.226166 320.418823,158.699570 325.726593,157.824097 
	C331.182526,156.924210 337.065338,158.612274 343.153137,159.206039 
	C343.153137,152.009979 343.153137,145.409088 343.153137,138.443695 
	C349.693512,138.443695 355.908691,138.443695 362.625244,138.443695 
	C362.625244,145.105804 362.625244,151.839508 362.625244,158.902527 
	C366.723419,158.902527 370.336304,158.902527 374.132629,158.902527 
	C374.132629,164.004761 374.132629,168.761414 374.132629,173.746796 
	C370.396301,173.746796 366.930511,173.746796 363.030670,173.746796 
	C363.030670,181.035965 362.709717,188.129868 363.153137,195.175659 
	C363.411743,199.285110 365.753540,199.876419 371.938141,198.063599 
	C373.295685,202.457748 374.657043,206.864258 375.996216,211.849197 
	C375.973999,212.427628 375.946350,212.797974 375.946350,212.797974 
z"/>
<path fill="#FDFDFD" opacity="1.000000" stroke="none" 
	d="
M1274.961670,216.086380 
	C1266.092041,217.680603 1258.464355,215.746094 1251.176514,210.012253 
	C1251.176514,221.361008 1251.176514,232.064697 1251.176514,243.043732 
	C1244.700073,243.043732 1238.619019,243.043732 1231.868652,243.043732 
	C1231.868652,229.297012 1231.868652,215.381378 1231.868652,201.465759 
	C1231.868652,187.502136 1231.868652,173.538513 1231.868652,159.286530 
	C1238.298706,159.286530 1244.533691,159.286530 1250.927979,159.286530 
	C1250.927979,161.048355 1250.927979,162.697327 1250.927979,164.898392 
	C1261.883667,155.776550 1273.459106,154.430298 1284.971191,162.192963 
	C1295.791748,169.489227 1298.860229,180.723770 1296.694824,193.009201 
	C1294.598633,204.902466 1287.616211,213.116714 1274.961670,216.086380 
M1267.602173,199.616043 
	C1268.371582,199.310104 1269.186035,199.085159 1269.903198,198.685455 
	C1275.819092,195.387802 1278.276489,188.566772 1275.952881,181.987320 
	C1273.848511,176.028458 1267.267212,172.683350 1260.544800,174.155518 
	C1254.404907,175.500122 1250.530640,180.980240 1250.844238,187.876816 
	C1251.215942,196.047974 1257.118652,200.474380 1267.602173,199.616043 
z"/>
<path fill="#FBFBFB" opacity="1.000000" stroke="none" 
	d="
M376.389099,212.724457 
	C375.946350,212.797974 375.973999,212.427628 375.977905,212.241974 
	C376.512085,210.735245 377.500183,209.415802 377.504944,208.092819 
	C377.596527,182.682510 377.571259,157.271790 377.574585,131.861145 
	C377.574982,128.871918 377.601685,125.882698 377.987976,122.375397 
	C378.632629,121.714920 378.840485,121.507416 378.983307,121.234795 
	C384.777374,121.234795 390.571411,121.234795 396.704376,121.234795 
	C396.704376,135.451630 396.704376,149.541565 396.704376,164.259155 
	C397.855286,163.680054 398.575165,163.478745 399.086548,163.036423 
	C406.917297,156.263184 415.591492,156.129562 424.785065,159.642075 
	C432.970886,162.769577 437.488953,168.731049 437.681519,177.414597 
	C437.954193,189.709808 437.750671,202.015579 437.750671,214.660965 
	C431.346313,214.660965 425.115967,214.660965 418.286499,214.660965 
	C418.286499,208.648834 418.289520,202.542084 418.285461,196.435349 
	C418.282562,192.106064 418.382935,187.772919 418.235535,183.448380 
	C418.010773,176.853806 414.035797,172.500656 408.421539,172.460190 
	C402.407257,172.416840 397.039459,177.637436 396.970947,183.908447 
	C396.860168,194.049347 396.941162,204.192337 396.941162,215.000854 
	C391.027435,215.000854 385.269073,215.104355 379.522064,214.895660 
	C378.599365,214.862137 377.727295,213.434235 376.389099,212.724457 
z"/>
<path fill="#FDFDFD" opacity="1.000000" stroke="none" 
	d="
M891.186890,199.997223 
	C891.186890,205.145065 891.186890,209.793320 891.186890,214.721313 
	C884.739441,214.721313 878.493896,214.721313 872.060913,214.721313 
	C872.060913,212.930695 872.060913,211.288757 872.060913,208.907135 
	C865.038086,215.413895 857.296753,217.739777 848.376221,216.155472 
	C842.009644,215.024750 836.882202,211.938873 832.767700,207.068192 
	C823.239685,195.788986 823.520691,177.845764 833.087952,166.526199 
	C840.351196,157.932678 856.280151,152.529007 871.728455,163.639191 
	C871.883362,162.068863 872.020691,160.675919 872.172058,159.141266 
	C878.329041,159.141266 884.457764,159.141266 891.186890,159.141266 
	C891.186890,172.656708 891.186890,186.077179 891.186890,199.997223 
M864.280518,174.831406 
	C863.164673,174.550583 862.062317,174.110626 860.930786,174.014328 
	C852.549133,173.300919 846.224792,178.965805 846.239441,187.104156 
	C846.254211,195.348907 852.476074,200.789642 861.002319,200.013580 
	C866.097473,199.549820 870.500854,195.923126 871.824097,191.100677 
	C873.640503,184.480896 871.443848,179.300964 864.280518,174.831406 
z"/>
<path fill="#FBFBFB" opacity="1.000000" stroke="none" 
	d="
M1634.438721,157.495285 
	C1639.644775,157.956482 1644.588867,157.848587 1649.155762,159.108093 
	C1663.630249,163.100082 1671.843628,174.914001 1671.016724,189.662842 
	C1670.307373,202.315857 1659.881226,213.716537 1646.117188,215.735046 
	C1640.138428,216.611847 1633.715454,216.624954 1627.813721,215.439484 
	C1612.525391,212.368546 1603.445068,200.395981 1604.040039,185.475510 
	C1604.577515,171.991302 1615.593872,160.354675 1630.037109,158.033997 
	C1631.351318,157.822861 1632.681274,157.710342 1634.438721,157.495285 
M1644.445068,175.785995 
	C1643.396362,175.305145 1642.392334,174.626495 1641.291138,174.377075 
	C1636.080322,173.196579 1631.407104,174.138870 1627.727905,178.290558 
	C1624.403809,182.041763 1623.618896,188.571152 1625.930542,193.223663 
	C1628.327026,198.046768 1632.390137,200.092911 1637.643555,200.070267 
	C1643.260254,200.046066 1647.900757,197.012024 1649.729736,192.161133 
	C1651.861084,186.508514 1650.202271,180.754364 1644.445068,175.785995 
z"/>
<path fill="#FBFBFB" opacity="1.000000" stroke="none" 
	d="
M1016.954468,201.897980 
	C1006.950195,182.477890 1017.430847,161.693695 1038.764771,158.070099 
	C1048.052979,156.492493 1057.102783,157.212418 1065.345703,162.120834 
	C1075.666382,168.266510 1080.960083,177.328537 1080.002319,189.550766 
	C1079.109009,200.949921 1072.843262,208.653900 1062.767578,213.357910 
	C1046.597778,220.907181 1027.244385,216.101501 1016.954468,201.897980 
M1058.067017,180.672653 
	C1057.165527,179.496979 1056.408813,178.164871 1055.337036,177.173309 
	C1051.192871,173.339188 1044.496216,172.815964 1039.639038,175.814697 
	C1034.498413,178.988388 1032.299194,185.305496 1034.165405,191.536972 
	C1035.701050,196.664505 1040.419922,199.986038 1046.281494,200.065125 
	C1056.334229,200.200760 1061.489380,192.250031 1058.067017,180.672653 
z"/>
<path fill="#FBFBFB" opacity="1.000000" stroke="none" 
	d="
M593.013550,180.696640 
	C590.114746,173.830093 586.766174,171.687271 581.247864,172.775955 
	C575.684082,173.873596 571.987915,178.491638 571.954712,184.612061 
	C571.900574,194.570038 571.940063,204.528503 571.940063,214.745209 
	C565.396301,214.745209 559.175049,214.745209 552.791809,214.745209 
	C552.791809,196.150803 552.791809,177.725281 552.791809,159.146591 
	C559.140198,159.146591 565.264404,159.146591 571.817139,159.146591 
	C571.899963,160.740585 571.980042,162.281342 572.107300,164.729507 
	C580.865051,156.359451 590.367615,155.695786 600.551697,159.942734 
	C607.622192,162.891266 612.213684,168.111862 612.477722,175.752579 
	C612.924377,188.677109 612.600342,201.628281 612.600342,214.786194 
	C606.240967,214.786194 600.129517,214.786194 593.071045,214.786194 
	C593.071045,203.598526 593.071045,192.361755 593.013550,180.696640 
z"/>
<path fill="#FAFAFA" opacity="1.000000" stroke="none" 
	d="
M1368.498047,189.775146 
	C1367.591919,190.960724 1366.509399,192.307877 1366.771362,193.300049 
	C1368.802490,200.992386 1380.171387,203.933746 1387.615356,198.769699 
	C1389.103027,197.737595 1390.411133,196.446869 1392.022827,195.089432 
	C1396.504150,197.359451 1401.023071,199.648590 1405.570435,201.952072 
	C1397.727783,214.982727 1379.612671,220.359268 1364.885498,214.366455 
	C1351.040649,208.732742 1343.540527,194.682693 1346.812012,180.509460 
	C1350.493164,164.562393 1365.808228,155.205612 1383.704224,157.969971 
	C1398.732422,160.291321 1407.765259,172.520905 1406.593750,189.772308 
	C1394.087402,189.772308 1381.515991,189.772308 1368.498047,189.775146 
M1375.536621,178.987686 
	C1379.568237,178.987686 1383.599854,178.987686 1387.769653,178.987686 
	C1385.801514,171.947510 1382.255127,169.422394 1375.805786,170.007309 
	C1370.469360,170.491318 1367.527100,173.468414 1367.156494,178.987686 
	C1369.635376,178.987686 1372.101807,178.987686 1375.536621,178.987686 
z"/>
<path fill="#FAFAFA" opacity="1.000000" stroke="none" 
	d="
M645.014587,189.771393 
	C641.702087,189.771393 638.888184,189.771393 635.815552,189.771393 
	C635.224609,194.602264 637.291138,197.819550 641.159973,199.581360 
	C648.725464,203.026428 655.416626,201.234512 661.188904,195.038742 
	C665.790405,197.370178 670.307922,199.659012 674.854858,201.962814 
	C666.520630,215.558365 646.994507,220.756500 632.333679,213.591843 
	C618.329468,206.748047 611.826538,191.297913 616.991028,177.139374 
	C621.306458,165.308594 633.535400,157.104996 646.563660,157.301010 
	C660.317505,157.507950 670.900879,164.387787 674.351868,175.898438 
	C675.616577,180.116913 675.832703,184.649734 676.643066,189.771393 
	C665.713440,189.771393 655.613342,189.771393 645.014587,189.771393 
M638.919312,178.991714 
	C644.854431,178.991714 650.789551,178.991714 656.772522,178.991714 
	C655.805847,173.311752 653.146423,170.583008 648.267883,170.019699 
	C642.787231,169.386841 638.297485,171.487350 636.792969,175.745895 
	C636.498962,176.578354 637.580139,177.896622 638.919312,178.991714 
z"/>
<path fill="#FFFFFF" opacity="1.000000" stroke="none" 
	d="
M483.005371,214.998947 
	C478.193115,214.998947 473.879486,214.998947 469.220337,214.998947 
	C469.220337,185.036804 469.220337,155.226868 469.220337,125.201866 
	C475.794189,125.201866 482.352051,125.201866 489.303955,125.201866 
	C489.303955,149.141052 489.303955,172.849701 489.303955,196.993317 
	C499.756226,196.993317 509.822388,196.993317 520.062073,196.993317 
	C520.062073,203.039444 520.062073,208.651352 520.062073,214.998947 
	C507.943878,214.998947 495.723938,214.998947 483.005371,214.998947 
z"/>
<path fill="#FBFBFB" opacity="1.000000" stroke="none" 
	d="
M1159.459229,214.820770 
	C1159.034424,214.355240 1159.072021,213.974121 1159.210571,213.429718 
	C1160.128662,212.814087 1161.174316,212.550766 1161.728149,211.880814 
	C1168.820557,203.303085 1175.842407,194.667145 1183.114624,185.761337 
	C1176.455688,177.044022 1169.851562,168.398499 1162.681152,159.011642 
	C1170.277222,159.011642 1177.156616,158.917496 1184.027710,159.115051 
	C1185.036743,159.144058 1186.198364,160.405548 1186.958618,161.360168 
	C1189.543091,164.605499 1191.979126,167.968918 1194.896484,171.852570 
	C1197.556641,168.379623 1199.821777,164.954666 1202.592285,162.004227 
	C1203.958984,160.548737 1206.215332,159.244400 1208.144653,159.128326 
	C1214.212402,158.763275 1220.316040,158.993866 1227.234253,158.993866 
	C1220.112671,168.305740 1213.506226,176.943924 1206.780884,185.737747 
	C1214.611206,195.354919 1222.322998,204.826599 1230.608276,215.002594 
	C1222.768921,215.002594 1215.847168,215.139969 1208.940186,214.880692 
	C1207.640137,214.831863 1206.134644,213.420181 1205.178711,212.262070 
	C1201.810669,208.181747 1198.640381,203.938034 1194.993896,199.239334 
	C1191.379761,203.846924 1188.201050,208.241348 1184.618530,212.277252 
	C1183.398926,213.651138 1181.192017,214.805237 1179.385376,214.883270 
	C1172.909180,215.162949 1166.411255,214.938843 1159.459229,214.820770 
z"/>
<path fill="#027407" opacity="1.000000" stroke="none" 
	d="
M118.302521,60.096291 
	C118.302521,60.096291 118.389549,59.932159 118.730995,60.242058 
	C119.853920,60.597404 120.764137,60.928585 121.396706,60.643559 
	C126.963089,58.135437 132.480057,55.517632 138.011642,52.932289 
	C140.653763,52.181343 143.295883,51.430393 145.938004,50.679443 
	C146.085876,51.031094 146.233749,51.382748 146.381622,51.734398 
	C145.538544,52.223652 144.729721,52.788109 143.847015,53.190395 
	C136.034027,56.751045 129.115173,61.359467 123.720856,68.281082 
	C114.346298,80.309845 118.951027,90.739304 128.030975,98.898079 
	C140.573715,110.168335 156.278137,114.849052 172.381897,117.890587 
	C185.544510,120.376610 198.889709,121.895912 212.610016,123.910789 
	C212.610016,127.344521 212.610016,131.249298 212.610016,135.910202 
	C208.149460,135.910202 203.541519,136.274460 199.007980,135.847946 
	C177.955185,133.867355 157.112549,130.702545 137.712799,121.686020 
	C126.729546,116.581276 117.172684,109.694473 110.347496,99.205406 
	C101.379120,85.422653 105.549980,73.131752 116.821671,63.079803 
	C117.296272,62.656563 117.697296,62.150810 118.158615,61.105629 
	C118.184639,60.527756 118.302521,60.096291 118.302521,60.096291 
z"/>
<path fill="#FAFAFA" opacity="1.000000" stroke="none" 
	d="
M1454.280029,198.720856 
	C1453.919800,206.828201 1449.956055,211.965134 1442.773560,214.361862 
	C1432.102661,217.922623 1421.508789,217.659073 1411.279175,212.618744 
	C1409.562622,211.772919 1408.078979,210.454056 1406.243164,209.184601 
	C1408.928833,204.659912 1411.362793,200.559189 1413.910645,196.266541 
	C1416.644409,197.792068 1419.069580,199.416840 1421.709717,200.532166 
	C1423.801392,201.415817 1426.226318,202.278625 1428.374634,202.031616 
	C1430.306519,201.809509 1432.063232,200.064819 1433.897217,198.991730 
	C1432.698486,197.409103 1431.820435,195.269562 1430.235840,194.357025 
	C1426.667236,192.301895 1422.622314,191.085800 1419.000854,189.107651 
	C1412.982056,185.819870 1409.480713,180.826050 1410.211914,173.651138 
	C1410.974731,166.167572 1415.507446,161.532227 1422.315674,159.281815 
	C1432.718628,155.843201 1442.925415,156.985916 1453.420166,161.660889 
	C1451.293335,165.933563 1449.274292,169.989578 1447.536865,173.480011 
	C1442.458252,172.578384 1437.973022,171.499542 1433.430664,171.139526 
	C1431.976562,171.024292 1430.371704,172.811386 1428.835815,173.728119 
	C1429.996582,175.129715 1430.882568,177.106918 1432.372803,177.818176 
	C1435.946777,179.523834 1439.914429,180.393234 1443.524048,182.037415 
	C1450.420654,185.178940 1454.779785,190.203781 1454.280029,198.720856 
z"/>
<path fill="#FBFBFB" opacity="1.000000" stroke="none" 
	d="
M1461.048950,166.211655 
	C1469.766968,156.168152 1480.808838,156.542313 1492.105591,158.407059 
	C1495.164551,158.912003 1498.090210,160.224625 1501.718506,161.368805 
	C1499.509277,165.899017 1497.517822,169.982620 1495.829834,173.444092 
	C1490.615479,172.568298 1485.949341,171.543640 1481.230469,171.146255 
	C1479.901733,171.034348 1478.418091,172.762070 1477.005493,173.645996 
	C1477.995361,175.007401 1478.696167,176.985291 1480.030884,177.611252 
	C1483.620483,179.294632 1487.594116,180.150070 1491.211060,181.786026 
	C1499.719360,185.634338 1503.385132,191.432724 1502.638794,199.214874 
	C1501.801147,207.948349 1497.445923,212.996460 1488.079102,215.248520 
	C1476.278076,218.085815 1465.015381,217.149643 1454.460693,209.241562 
	C1457.076904,204.817520 1459.580688,200.583542 1461.839966,196.763168 
	C1466.619263,198.641312 1471.031372,200.846497 1475.703735,201.972137 
	C1477.493652,202.403351 1481.026855,200.902786 1481.750854,199.345673 
	C1483.243774,196.134918 1480.078125,194.982666 1477.573242,193.886047 
	C1473.929810,192.291031 1470.127808,190.910294 1466.777466,188.822113 
	C1458.029541,183.369553 1456.195435,175.935974 1461.048950,166.211655 
z"/>
<path fill="#FCFCFC" opacity="1.000000" stroke="none" 
	d="
M679.572632,188.999649 
	C679.572632,178.866302 679.572632,169.232956 679.572632,159.299103 
	C686.069763,159.299103 692.282166,159.299103 698.805054,159.299103 
	C698.805054,161.426559 698.805054,163.514465 698.805054,166.759354 
	C707.579773,156.994247 717.066956,154.730682 728.408691,160.838425 
	C725.729309,166.307358 723.197815,171.474442 720.518005,176.944229 
	C719.226990,176.332687 718.121826,175.699799 716.942993,175.267914 
	C706.504272,171.443390 698.991882,176.679642 698.943909,187.829437 
	C698.906067,196.641922 698.936279,205.454712 698.936279,214.635529 
	C692.608643,214.635529 686.379761,214.635529 679.572571,214.635529 
	C679.572571,206.364075 679.572571,197.931870 679.572632,188.999649 
z"/>
<path fill="#FDFDFD" opacity="1.000000" stroke="none" 
	d="
M1301.019287,197.998505 
	C1301.019287,184.871490 1301.019287,172.244278 1301.019287,159.307571 
	C1307.431274,159.307571 1313.659424,159.307571 1320.143066,159.307571 
	C1320.240112,161.367737 1320.337891,163.443863 1320.483398,166.532272 
	C1329.139038,157.067734 1338.607300,154.648773 1349.910767,160.858109 
	C1347.218628,166.336487 1344.684326,171.493652 1342.008911,176.938217 
	C1340.702271,176.324554 1339.606445,175.706177 1338.440674,175.278519 
	C1328.044922,171.465149 1320.439453,176.701157 1320.325806,187.829849 
	C1320.235840,196.645782 1320.307739,205.463379 1320.307739,214.641403 
	C1314.009644,214.641403 1307.801392,214.641403 1301.019287,214.641403 
	C1301.019287,209.347885 1301.019287,203.923080 1301.019287,197.998505 
z"/>
<path fill="#FDFDFD" opacity="1.000000" stroke="none" 
	d="
M918.073914,192.103638 
	C918.073914,199.883560 918.073914,207.178879 918.073914,214.736649 
	C911.735168,214.736649 905.650818,214.736649 899.216064,214.736649 
	C899.216064,196.473511 899.216064,178.093613 899.216064,159.355423 
	C905.151794,159.355423 911.369995,159.355423 917.872437,159.355423 
	C917.872437,161.349243 917.872437,163.438782 917.872437,167.033432 
	C926.663696,157.049591 936.183777,154.731934 947.641907,160.792435 
	C945.020020,166.191940 942.508850,171.363586 939.824890,176.890991 
	C938.299500,176.244888 936.898560,175.517654 935.416443,175.045303 
	C925.340271,171.834030 918.218079,177.018433 918.077332,187.624847 
	C918.059631,188.956024 918.074280,190.287628 918.073914,192.103638 
z"/>
<path fill="#FEFEFE" opacity="1.000000" stroke="none" 
	d="
M525.024414,204.969513 
	C525.024414,189.507782 525.024414,174.540436 525.024414,159.287048 
	C531.481812,159.287048 537.702820,159.287048 544.111450,159.287048 
	C544.111450,177.698639 544.111450,195.974503 544.111450,214.625488 
	C538.007019,214.625488 531.800659,214.625488 525.024414,214.625488 
	C525.024414,211.675018 525.024414,208.569458 525.024414,204.969513 
z"/>
<path fill="#FAFAFA" opacity="1.000000" stroke="none" 
	d="
M1674.955322,205.685944 
	C1675.111084,198.055435 1678.657349,193.125748 1684.488159,191.984848 
	C1690.568237,190.795197 1696.543579,193.825790 1698.829468,199.258438 
	C1701.116577,204.694427 1699.363037,210.797195 1694.507690,214.298019 
	C1687.017822,219.698349 1677.781372,215.821701 1674.955322,205.685944 
z"/>
<path fill="#FBFBFB" opacity="1.000000" stroke="none" 
	d="
M523.650330,136.677032 
	C524.332520,129.093201 528.312195,124.732620 534.465698,124.409309 
	C540.042603,124.116287 545.285339,128.323502 546.153687,133.788773 
	C547.131836,139.944351 543.350525,145.780365 537.604248,146.983856 
	C530.743530,148.420746 525.303711,144.537888 523.650330,136.677032 
z"/>
<path fill="#182209" opacity="1.000000" stroke="none" 
	d="
M138.004700,52.588406 
	C132.480057,55.517632 126.963089,58.135437 121.396706,60.643559 
	C120.764137,60.928585 119.853920,60.597404 118.819405,60.270546 
	C124.607811,56.930714 130.649261,53.872284 136.832977,50.501335 
	C137.148468,50.153870 137.321686,50.118927 137.755798,50.130524 
	C138.010391,50.866219 138.004074,51.555370 138.004700,52.588406 
z"/>
<path fill="#FBFBFB" opacity="1.000000" stroke="none" 
	d="
M378.693542,121.178940 
	C378.840485,121.507416 378.632629,121.714920 378.149353,121.931274 
	C378.093872,121.711189 378.248840,121.417137 378.693542,121.178940 
z"/>
<path fill="#182209" opacity="1.000000" stroke="none" 
	d="
M115.188065,61.997101 
	C115.104904,61.729050 115.300713,61.546471 115.776794,61.466141 
	C115.874657,61.761852 115.677986,61.933250 115.188065,61.997101 
z"/>
<path fill="#182209" opacity="1.000000" stroke="none" 
	d="
M118.026382,60.157749 
	C118.302521,60.096291 118.184639,60.527756 118.159943,60.749023 
	C117.944618,60.995232 117.753990,61.020172 117.276108,61.019852 
	C117.242645,60.736126 117.496445,60.477665 118.026382,60.157749 
z"/>
<path fill="#040404" opacity="1.000000" stroke="none" 
	d="
M990.240662,187.003082 
	C989.479614,194.881683 985.590820,199.321457 979.232483,200.001129 
	C972.209351,200.751831 966.687012,197.378357 964.925110,191.260986 
	C963.059937,184.785248 965.501221,178.395966 970.974121,175.429932 
	C976.554565,172.405579 983.883606,173.672501 987.475525,178.821518 
	C988.989685,180.992065 989.353577,183.965057 990.240662,187.003082 
z"/>
<path fill="#040404" opacity="1.000000" stroke="none" 
	d="
M1267.210449,199.736053 
	C1257.118652,200.474380 1251.215942,196.047974 1250.844238,187.876816 
	C1250.530640,180.980240 1254.404907,175.500122 1260.544800,174.155518 
	C1267.267212,172.683350 1273.848511,176.028458 1275.952881,181.987320 
	C1278.276489,188.566772 1275.819092,195.387802 1269.903198,198.685455 
	C1269.186035,199.085159 1268.371582,199.310104 1267.210449,199.736053 
z"/>
<path fill="#040404" opacity="1.000000" stroke="none" 
	d="
M864.655090,174.955139 
	C871.443848,179.300964 873.640503,184.480896 871.824097,191.100677 
	C870.500854,195.923126 866.097473,199.549820 861.002319,200.013580 
	C852.476074,200.789642 846.254211,195.348907 846.239441,187.104156 
	C846.224792,178.965805 852.549133,173.300919 860.930786,174.014328 
	C862.062317,174.110626 863.164673,174.550583 864.655090,174.955139 
z"/>
<path fill="#050505" opacity="1.000000" stroke="none" 
	d="
M1644.781006,175.973053 
	C1650.202271,180.754364 1651.861084,186.508514 1649.729736,192.161133 
	C1647.900757,197.012024 1643.260254,200.046066 1637.643555,200.070267 
	C1632.390137,200.092911 1628.327026,198.046768 1625.930542,193.223663 
	C1623.618896,188.571152 1624.403809,182.041763 1627.727905,178.290558 
	C1631.407104,174.138870 1636.080322,173.196579 1641.291138,174.377075 
	C1642.392334,174.626495 1643.396362,175.305145 1644.781006,175.973053 
z"/>
<path fill="#050505" opacity="1.000000" stroke="none" 
	d="
M1058.242920,181.009399 
	C1061.489380,192.250031 1056.334229,200.200760 1046.281494,200.065125 
	C1040.419922,199.986038 1035.701050,196.664505 1034.165405,191.536972 
	C1032.299194,185.305496 1034.498413,178.988388 1039.639038,175.814697 
	C1044.496216,172.815964 1051.192871,173.339188 1055.337036,177.173309 
	C1056.408813,178.164871 1057.165527,179.496979 1058.242920,181.009399 
z"/>
<path fill="#070707" opacity="1.000000" stroke="none" 
	d="
M1375.052490,178.987686 
	C1372.101807,178.987686 1369.635376,178.987686 1367.156494,178.987686 
	C1367.527100,173.468414 1370.469360,170.491318 1375.805786,170.007309 
	C1382.255127,169.422394 1385.801514,171.947510 1387.769653,178.987686 
	C1383.599854,178.987686 1379.568237,178.987686 1375.052490,178.987686 
z"/>
<path fill="#090909" opacity="1.000000" stroke="none" 
	d="
M638.473145,178.991272 
	C637.580139,177.896622 636.498962,176.578354 636.792969,175.745895 
	C638.297485,171.487350 642.787231,169.386841 648.267883,170.019699 
	C653.146423,170.583008 655.805847,173.311752 656.772522,178.991714 
	C650.789551,178.991714 644.854431,178.991714 638.473145,178.991272 
z"/>
</svg>