<svg version="1.1" id="Layer_1" xmlns="http://www.w3.org/2000/svg" xmlns:xlink="http://www.w3.org/1999/xlink" x="0px" y="0px"
	 width="100%" viewBox="0 0 1920 1080" enable-background="new 0 0 1920 1080" xml:space="preserve">
<path fill="#FFFFFF" opacity="1.000000" stroke="none" 
	d="
M1070.000000,1081.000000 
	C713.333374,1081.000000 357.166809,1081.000000 1.000143,1081.000000 
	C1.000096,721.000122 1.000096,361.000244 1.000048,1.000288 
	C640.999756,1.000192 1280.999512,1.000192 1920.999512,1.000096 
	C1920.999634,360.999664 1920.999634,720.999329 1920.999756,1080.999512 
	C1637.500000,1081.000000 1354.000000,1081.000000 1070.000000,1081.000000 
M1508.500000,648.072327 
	C1617.586792,648.072327 1726.673584,648.072327 1835.704834,648.072327 
	C1835.704834,543.272583 1835.704834,439.035370 1835.704834,334.970062 
	C1252.357910,334.970062 669.320007,334.970062 86.294968,334.970062 
	C86.294968,439.483093 86.294968,543.707886 86.294968,648.072327 
	C560.260071,648.072327 1033.880005,648.072327 1508.500000,648.072327 
z"/>
<path fill="#010000" opacity="1.000000" stroke="none" 
	d="
M1508.000000,648.072327 
	C1033.880005,648.072327 560.260071,648.072327 86.294968,648.072327 
	C86.294968,543.707886 86.294968,439.483093 86.294968,334.970062 
	C669.320007,334.970062 1252.357910,334.970062 1835.704834,334.970062 
	C1835.704834,439.035370 1835.704834,543.272583 1835.704834,648.072327 
	C1726.673584,648.072327 1617.586792,648.072327 1508.000000,648.072327 
M467.615906,496.893433 
	C467.601410,499.882629 467.574677,502.871826 467.574280,505.861023 
	C467.570923,531.271423 467.596252,556.681885 467.504669,582.091980 
	C467.499878,583.415100 466.512024,584.734680 466.018524,585.270447 
	C464.657196,580.863953 463.295837,576.457458 461.892670,571.915527 
	C457.995850,573.270630 453.697479,574.702332 453.187225,569.168823 
	C452.540405,562.154785 453.030853,555.035950 453.030853,547.746826 
	C456.930939,547.746826 460.396667,547.746826 464.132996,547.746826 
	C464.132996,542.761414 464.132996,538.004822 464.132996,532.902588 
	C460.336761,532.902588 456.723938,532.902588 452.625824,532.902588 
	C452.625824,525.839600 452.625824,519.105957 452.625824,512.443054 
	C445.909241,512.443054 439.694000,512.443054 433.153656,512.443054 
	C433.153656,519.408020 433.153656,526.008911 433.153656,533.205933 
	C427.067047,532.612061 421.184021,530.923889 415.727692,531.823547 
	C410.419922,532.698730 405.549255,536.225037 400.484192,538.588440 
	C400.385956,537.196777 400.248138,535.244629 400.110687,533.297729 
	C393.663879,533.297729 387.437653,533.297729 381.306702,533.297729 
	C381.306702,551.997253 381.306702,570.390442 381.306702,588.842651 
	C387.713257,588.842651 393.827026,588.842651 400.315826,588.842651 
	C400.315826,580.212219 400.305237,571.740906 400.318237,563.269653 
	C400.338837,549.816101 408.649017,544.601257 420.754303,550.421387 
	C421.128906,550.601501 421.585907,550.610107 422.041321,550.706543 
	C422.881134,549.132629 423.644196,547.702576 423.992249,547.050232 
	C427.313965,547.487488 430.057068,547.848633 433.769562,548.337341 
	C433.769562,556.825195 433.000763,565.517822 433.936462,574.022888 
	C435.658020,589.671082 452.942261,596.312134 466.831787,586.651917 
	C467.727478,587.434937 468.599823,588.862305 469.522705,588.895813 
	C475.269684,589.104431 481.028015,589.001038 486.940765,589.001038 
	C486.940765,578.192200 486.859467,568.049194 486.970642,557.908325 
	C487.039368,551.635376 492.407532,546.416016 498.423248,546.460388 
	C504.036957,546.501831 508.011047,550.855530 508.235474,557.450378 
	C508.382660,561.774902 508.282410,566.108032 508.285278,570.437317 
	C508.289337,576.543945 508.286255,582.650574 508.286255,588.660645 
	C515.116882,588.660645 521.347351,588.660645 527.750854,588.660645 
	C527.750854,576.014832 527.954407,563.708984 527.681641,551.413757 
	C527.488953,542.730225 522.970459,536.769043 514.784668,533.641663 
	C505.591064,530.129150 496.916931,530.263123 489.086334,537.036377 
	C488.575073,537.478577 487.855103,537.679565 486.704346,538.258240 
	C486.704346,523.540955 486.704346,509.451111 486.704346,495.234680 
	C480.571381,495.234680 474.777313,495.234680 468.403625,495.122925 
	C468.248657,495.417023 468.093689,495.711121 467.615906,496.893433 
M1249.921631,588.905579 
	C1256.411133,588.939209 1262.908936,589.163269 1269.385010,588.883484 
	C1271.191772,588.805481 1273.399048,587.652039 1274.618530,586.278137 
	C1278.200928,582.241455 1281.379150,577.846008 1284.992065,573.238525 
	C1288.638916,577.937317 1291.809570,582.180969 1295.177856,586.261475 
	C1296.133911,587.419678 1297.638794,588.832214 1298.938965,588.880920 
	C1305.846191,589.140259 1312.768188,589.002930 1320.608765,589.002930 
	C1312.324463,578.827881 1304.613159,569.356506 1296.782593,559.738647 
	C1303.506714,550.945374 1310.113159,542.306030 1317.234375,532.993652 
	C1310.316162,532.993652 1304.212402,532.763000 1298.144531,533.127930 
	C1296.215210,533.243958 1293.958862,534.548340 1292.592285,536.003784 
	C1289.821899,538.954224 1287.556641,542.379089 1284.896240,545.852478 
	C1281.979004,541.968689 1279.542847,538.605225 1276.958618,535.359741 
	C1276.198364,534.405090 1275.036621,533.143799 1274.027588,533.114807 
	C1267.156006,532.917358 1260.276001,533.011475 1252.680176,533.011475 
	C1259.850586,542.398132 1266.454590,551.043396 1273.114136,559.761353 
	C1265.842529,568.666382 1258.820801,577.302246 1251.728638,585.879883 
	C1251.174438,586.550110 1250.129028,586.813904 1249.607422,586.341064 
	C1249.607422,581.380493 1249.607422,576.419922 1249.607422,571.018494 
	C1239.153687,571.018494 1229.076416,571.018494 1218.842285,571.018494 
	C1218.842285,564.830627 1218.842285,559.093994 1218.842285,552.916382 
	C1228.607422,552.916382 1238.186890,552.916382 1247.960327,552.916382 
	C1247.960327,546.745850 1247.960327,541.017273 1247.960327,534.843201 
	C1238.165039,534.843201 1228.585083,534.843201 1218.942627,534.843201 
	C1218.942627,528.679443 1218.942627,522.966431 1218.942627,516.764526 
	C1229.286011,516.764526 1239.340698,516.764526 1249.435547,516.764526 
	C1249.435547,510.662415 1249.435547,505.057892 1249.435547,499.297668 
	C1232.208008,499.297668 1215.192139,499.297668 1198.321289,499.297668 
	C1198.321289,529.356201 1198.321289,559.078979 1198.321289,588.736572 
	C1215.415161,588.736572 1232.205933,588.736572 1249.921631,588.905579 
M224.847473,425.015625 
	C243.721344,421.350800 262.595215,417.685974 280.808167,414.149475 
	C271.400238,414.734070 261.251923,415.168579 251.140060,416.030579 
	C223.430038,418.392731 196.507797,424.200256 171.044907,435.658752 
	C154.241547,443.220428 138.194580,452.222900 126.245781,466.659912 
	C114.395241,480.978180 109.289879,497.140778 116.319588,515.455444 
	C121.846039,529.853760 132.272308,540.335571 144.624847,548.874939 
	C164.414551,562.555603 186.556854,571.174927 209.534485,577.836426 
	C230.866501,584.020874 252.683502,587.604858 274.731903,589.789978 
	C283.941284,590.702759 293.223938,590.876221 302.699219,591.398315 
	C302.699219,582.197876 302.699219,573.810547 302.699219,565.532471 
	C287.836609,564.006531 273.246887,562.864990 258.760559,560.944153 
	C231.972015,557.392029 205.600739,551.944458 180.638275,541.134277 
	C166.760773,535.124634 153.910553,527.545837 144.166672,515.616943 
	C132.341919,501.140503 127.623024,478.720215 144.567886,461.164215 
	C158.844376,446.372833 176.679092,437.823578 195.805923,432.695221 
	C192.372589,434.711884 188.887726,436.646240 185.513992,438.758118 
	C155.789169,457.365570 155.784454,482.528656 174.882645,507.176697 
	C183.430130,518.207886 195.173477,525.291382 207.752274,530.940186 
	C227.844406,539.963135 249.137161,544.431580 270.872528,546.912842 
	C281.381012,548.112488 291.969177,548.614197 302.683807,549.444458 
	C302.683807,542.110229 302.683807,535.726318 302.683807,528.923584 
	C299.385406,528.923584 296.403961,529.048462 293.435669,528.903748 
	C270.248444,527.773865 247.329208,525.055908 225.394577,516.870605 
	C209.889572,511.084625 195.802505,503.139740 185.450958,489.763641 
	C175.047653,476.320679 175.165344,463.010803 186.887787,450.663300 
	C192.534332,444.715668 199.524231,439.927277 206.335220,435.237549 
	C211.927185,431.387146 218.153809,428.458435 224.847473,425.015625 
M1099.187378,537.577759 
	C1099.187378,536.147705 1099.187378,534.717590 1099.187378,533.146790 
	C1092.535400,533.146790 1086.417114,533.146790 1080.143066,533.146790 
	C1080.016357,534.624695 1079.897461,536.009949 1079.767090,537.530273 
	C1064.993896,528.612671 1051.003662,529.622742 1041.526123,540.101746 
	C1032.015503,550.617249 1031.241699,567.771973 1039.390015,579.414673 
	C1046.113770,589.021973 1061.516724,595.590515 1079.667847,586.125427 
	C1080.333618,593.906921 1078.458008,597.931091 1072.900757,600.644287 
	C1065.982788,604.021851 1057.911255,602.095398 1050.648438,595.227905 
	C1045.712402,597.660767 1040.713623,600.124512 1035.342529,602.771729 
	C1037.973022,608.624512 1041.840454,612.682739 1047.303223,615.268494 
	C1055.565918,619.179688 1064.338745,619.871948 1073.160400,618.528076 
	C1091.149536,615.787598 1099.154297,606.198242 1099.181396,588.016235 
	C1099.206055,571.532898 1099.187134,555.049622 1099.187378,537.577759 
M1666.539429,497.227112 
	C1660.383789,498.458649 1653.921021,498.878021 1648.128052,501.068542 
	C1627.777710,508.763336 1614.896484,529.232483 1617.513550,548.610413 
	C1620.762329,572.665588 1641.909546,591.055725 1666.218628,590.651733 
	C1676.568848,590.479614 1686.662964,588.881531 1695.565918,582.233093 
	C1692.645996,576.401978 1689.841553,570.801758 1687.034302,565.195679 
	C1671.457275,573.379944 1655.148560,571.626343 1646.093994,560.997620 
	C1637.865479,551.338440 1637.437866,538.592529 1644.911255,528.367371 
	C1648.622314,523.289856 1653.638550,520.342834 1659.620483,518.778137 
	C1669.202759,516.271729 1678.241699,517.745422 1687.023926,522.815125 
	C1689.956787,516.924683 1692.737305,511.340302 1695.590820,505.609283 
	C1686.926758,499.295441 1677.303223,497.892883 1666.539429,497.227112 
M888.635559,517.680115 
	C895.349854,518.877441 902.064148,520.074768 909.486328,521.398315 
	C911.654968,517.031555 914.489319,511.324432 917.276611,505.712036 
	C900.495056,493.814392 869.332703,492.585693 850.244934,514.712708 
	C834.033752,533.505066 835.500610,559.551575 853.400513,576.722900 
	C870.420349,593.049988 902.229736,595.698425 917.154785,581.851685 
	C914.366882,576.307007 911.549011,570.702698 908.729309,565.094727 
	C907.149841,565.922180 905.884033,566.726990 904.516357,567.279724 
	C892.418518,572.169312 880.566589,572.176086 870.320251,563.392029 
	C862.108704,556.352356 859.114502,546.926086 862.595886,536.328796 
	C866.527405,524.361389 875.455933,518.690369 888.635559,517.680115 
M361.488525,570.992004 
	C355.572754,570.992004 349.656982,570.992004 343.809082,570.992004 
	C343.809082,564.660706 343.809082,559.033630 343.809082,552.965820 
	C353.541779,552.965820 363.126862,552.965820 372.944336,552.965820 
	C372.944336,546.794678 372.944336,541.065491 372.944336,534.880920 
	C363.217651,534.880920 353.635803,534.880920 343.925018,534.880920 
	C343.925018,528.710938 343.925018,522.996948 343.925018,516.792419 
	C354.254181,516.792419 364.314911,516.792419 374.271240,516.792419 
	C374.271240,510.575836 374.271240,504.859344 374.271240,499.292633 
	C356.988708,499.292633 340.083954,499.292633 323.328491,499.292633 
	C323.328491,529.356079 323.328491,559.087585 323.328491,588.687500 
	C340.541321,588.687500 357.441589,588.687500 374.302551,588.687500 
	C374.302551,582.636414 374.302551,576.907654 374.302551,570.992004 
	C370.133484,570.992004 366.307922,570.992004 361.488525,570.992004 
M1382.968628,544.644409 
	C1372.329224,529.316589 1357.598999,527.112854 1340.932617,538.682068 
	C1340.932617,536.709045 1340.932617,534.997314 1340.932617,533.207153 
	C1334.446533,533.207153 1328.348877,533.207153 1322.134277,533.207153 
	C1322.134277,561.289062 1322.134277,589.161011 1322.134277,617.128662 
	C1328.483154,617.128662 1334.564575,617.128662 1341.253052,617.128662 
	C1341.253052,606.140564 1341.253052,595.334839 1341.253052,584.139038 
	C1353.104126,592.299133 1365.635742,592.733398 1375.324829,585.717957 
	C1387.337280,577.020447 1390.727295,559.835022 1382.968628,544.644409 
M971.522583,589.003906 
	C974.640869,589.003906 977.759216,589.003906 980.992981,589.003906 
	C980.992981,570.163391 980.992981,551.788818 980.992981,533.232422 
	C974.582031,533.232422 968.366272,533.232422 962.157959,533.232422 
	C961.984131,534.820312 961.836060,536.172852 961.663696,537.747314 
	C948.074463,528.394104 932.967651,529.514465 923.391907,540.253235 
	C913.429382,551.425842 913.133606,569.673218 922.770447,581.070496 
	C926.996948,586.069153 932.274292,589.160339 938.835999,590.225830 
	C947.590576,591.647400 955.140320,589.314819 961.940247,582.982788 
	C962.053955,585.341675 962.136719,587.058960 962.230469,589.003906 
	C965.254089,589.003906 967.901184,589.003906 971.522583,589.003906 
M1144.293335,532.023499 
	C1139.322510,532.011169 1134.282349,531.459534 1129.393799,532.087646 
	C1114.734985,533.971497 1103.516724,545.948547 1103.034912,559.635254 
	C1102.510376,574.536255 1111.703979,586.500793 1126.969604,589.503052 
	C1132.723877,590.634766 1138.973877,590.651123 1144.792725,589.789734 
	C1163.041138,587.088135 1174.207642,569.745300 1168.895142,552.631836 
	C1165.297119,541.041504 1156.455566,535.024170 1144.293335,532.023499 
M1700.461670,543.005310 
	C1687.346924,560.240662 1694.822021,583.388855 1715.757080,588.818848 
	C1722.002319,590.438660 1728.965332,590.525024 1735.431030,589.803528 
	C1748.889404,588.301758 1759.641235,577.271973 1760.945312,564.921143 
	C1762.447388,550.695190 1755.199219,538.634399 1741.337524,533.867126 
	C1726.359009,528.715698 1712.531616,530.796692 1700.461670,543.005310 
M668.664917,547.620789 
	C677.500061,544.926147 682.983643,548.808533 683.268188,558.002808 
	C683.345459,560.499023 683.284363,562.999512 683.284546,565.498047 
	C683.285217,573.266968 683.284851,581.035950 683.284851,588.636230 
	C690.159058,588.636230 696.393066,588.636230 702.774231,588.636230 
	C702.774231,576.121887 702.936462,563.974915 702.720276,551.834595 
	C702.561951,542.943054 698.100342,536.840759 689.712585,533.596619 
	C679.746216,529.741943 670.586487,530.640198 662.123108,538.751648 
	C661.983887,536.323120 661.895874,534.787476 661.812378,533.331360 
	C655.243896,533.331360 649.027893,533.331360 642.914001,533.331360 
	C642.914001,552.055298 642.914001,570.438599 642.914001,588.769653 
	C649.368347,588.769653 655.472290,588.769653 661.939514,588.769653 
	C661.939514,578.915710 662.110535,569.290283 661.871033,559.675110 
	C661.741638,554.476624 663.569641,550.660278 668.664917,547.620789 
M1489.381226,563.771667 
	C1491.806641,563.771667 1494.232178,563.771667 1496.859131,563.771667 
	C1496.984253,553.718079 1495.286987,545.116455 1487.905640,538.600342 
	C1478.372681,530.184631 1462.210693,528.903748 1450.969238,535.597046 
	C1439.423584,542.471497 1433.907349,554.880005 1436.787842,567.498047 
	C1439.704468,580.275269 1450.794800,589.431519 1464.785156,590.613220 
	C1478.088379,591.736877 1490.301636,585.910950 1495.335205,575.803284 
	C1490.935547,573.583984 1486.532349,571.362915 1481.931030,569.041870 
	C1476.496582,575.002625 1469.987305,576.898132 1462.515259,573.860840 
	C1458.324829,572.157532 1456.150757,568.835754 1456.290283,564.198975 
	C1456.797363,564.032776 1457.110107,563.841431 1457.423340,563.840393 
	C1467.753052,563.806274 1478.082642,563.790283 1489.381226,563.771667 
M724.964722,533.238525 
	C711.478516,539.415833 704.056885,550.738647 705.283752,563.265076 
	C706.524414,575.932678 715.998047,586.851440 728.298340,589.790405 
	C742.803528,593.256226 757.282715,587.925659 764.930298,575.997803 
	C760.365112,573.686218 755.839844,571.394775 751.192200,569.041382 
	C745.483337,575.232361 738.764893,576.985352 731.201538,573.605225 
	C727.321411,571.871155 725.223450,568.635742 725.833679,563.621582 
	C739.292419,563.621582 752.551086,563.621582 765.762512,563.621582 
	C766.910339,547.390198 759.621521,535.702820 745.377747,532.736755 
	C739.118469,531.433472 732.294006,532.844421 724.964722,533.238525 
M610.244141,583.449036 
	C610.244141,579.368835 610.244141,575.288635 610.244141,570.768616 
	C599.572083,570.768616 589.519714,570.768616 579.067749,570.768616 
	C579.067749,546.610229 579.067749,522.917725 579.067749,499.302246 
	C572.086914,499.302246 565.531006,499.302246 559.158203,499.302246 
	C559.158203,529.338806 559.158203,559.040039 559.158203,588.700684 
	C576.329895,588.700684 593.214905,588.700684 610.244080,588.700684 
	C610.244080,587.080444 610.244080,585.758545 610.244141,583.449036 
M208.281128,453.794281 
	C212.782593,437.482391 225.729507,430.204132 241.152954,424.200378 
	C231.016586,424.475250 212.980011,432.044342 205.952072,438.480591 
	C193.323563,450.045898 191.960464,460.865387 201.629303,475.038055 
	C210.085358,487.433044 222.463348,494.764099 236.311844,498.998383 
	C249.909058,503.155884 263.926392,506.125854 277.927429,508.704224 
	C285.950043,510.181610 294.307251,509.842102 302.674255,510.329926 
	C302.674255,505.385590 302.674255,501.479309 302.674255,497.456116 
	C298.436310,496.963684 294.516113,496.387512 290.575043,496.070831 
	C272.445862,494.614014 254.580002,491.660889 237.720322,484.676727 
	C223.792725,478.907135 210.716095,471.780060 208.281128,453.794281 
M1533.452515,588.129150 
	C1538.005249,586.361877 1541.395874,583.420349 1543.162109,578.742188 
	C1546.459229,570.008667 1543.884766,561.874023 1535.749634,557.299866 
	C1531.888428,555.128784 1527.380859,554.134277 1523.387451,552.159424 
	C1521.589844,551.270508 1520.333862,549.286377 1518.832153,547.799255 
	C1520.845459,546.856689 1522.914185,545.032776 1524.860352,545.155029 
	C1528.903076,545.409180 1532.880859,546.695435 1537.422241,547.672974 
	C1539.251343,544.023071 1541.284546,539.965881 1543.496826,535.551331 
	C1531.227051,530.705261 1519.423706,528.908875 1507.934937,535.463379 
	C1497.934814,541.168518 1497.274048,554.622925 1506.527710,561.324585 
	C1510.229736,564.005676 1514.685303,565.662476 1518.843506,567.691711 
	C1521.348877,568.914307 1525.132080,569.810486 1523.529175,573.283691 
	C1522.758179,574.954956 1518.660889,576.346313 1516.517822,575.866028 
	C1512.179443,574.893677 1508.146729,572.558777 1503.651978,570.642456 
	C1501.322266,574.624573 1498.850342,578.850037 1496.222168,583.342468 
	C1507.882935,591.711487 1520.006958,592.205750 1533.452515,588.129150 
M1550.475220,573.050659 
	C1548.548096,576.317566 1546.620850,579.584412 1544.493530,583.190613 
	C1554.940063,591.225098 1566.320435,592.094360 1578.254639,589.194580 
	C1587.553467,586.935303 1591.904053,581.785095 1592.653564,573.028748 
	C1593.307495,565.385986 1589.778320,559.753967 1581.488525,555.923584 
	C1577.886597,554.259277 1573.891357,553.432922 1570.327759,551.704773 
	C1568.881470,551.003296 1568.108276,548.913818 1567.028809,547.456055 
	C1568.498047,546.632935 1570.041992,545.005066 1571.423096,545.133179 
	C1576.124023,545.568787 1580.767700,546.623657 1585.800049,547.506470 
	C1587.550415,543.947083 1589.503662,539.975464 1591.441162,536.035522 
	C1581.221436,530.024719 1565.063232,529.800720 1556.215332,535.333923 
	C1546.473267,541.426331 1545.567139,554.554565 1554.758789,561.295898 
	C1558.445190,563.999573 1562.908203,565.667297 1567.080078,567.677185 
	C1569.613647,568.897705 1573.342529,569.819885 1571.717529,573.290588 
	C1570.936523,574.958618 1566.868042,576.346252 1564.743164,575.862732 
	C1560.384766,574.870911 1556.333130,572.531738 1551.988892,570.676208 
	C1551.748535,571.061279 1551.311890,571.761047 1550.475220,573.050659 
M788.935669,536.233398 
	C788.178345,535.155029 787.464905,533.181946 786.656738,533.142334 
	C781.074646,532.868774 775.472778,532.998230 769.847046,532.998230 
	C769.847046,551.958679 769.847046,570.369568 769.847046,588.639160 
	C776.362122,588.639160 782.596375,588.639160 788.936523,588.639160 
	C788.936523,579.456299 788.905884,570.637817 788.944336,561.819641 
	C788.992920,550.669922 796.528076,545.436523 806.969910,549.281799 
	C808.144165,549.714111 809.248779,550.335449 810.522278,550.933228 
	C813.211914,545.445312 815.744995,540.276855 818.410583,534.838074 
	C807.040039,528.684387 797.557983,531.075317 788.935791,540.562195 
	C788.935791,538.741333 788.935791,537.913696 788.935669,536.233398 
M1439.609741,535.471680 
	C1428.661621,527.638000 1419.342041,531.607727 1410.460693,540.281677 
	C1410.326172,537.413696 1410.228760,535.338928 1410.134766,533.334351 
	C1403.604248,533.334351 1397.375000,533.334351 1391.346680,533.334351 
	C1391.346680,552.066833 1391.346680,570.460693 1391.346680,588.770203 
	C1397.784058,588.770203 1403.891479,588.770203 1409.863647,588.770203 
	C1410.068604,588.405518 1410.207031,588.273865 1410.207642,588.141479 
	C1410.248169,579.316772 1410.206909,570.490967 1410.326172,561.667419 
	C1410.473267,550.798523 1417.928223,545.601135 1428.147095,549.170166 
	C1429.353394,549.591492 1430.472412,550.262817 1431.971436,550.980957 
	C1434.423706,545.980835 1436.823486,541.087708 1439.609741,535.471680 
M1008.074341,538.341858 
	C1008.074341,536.693054 1008.074341,535.044312 1008.074341,533.249268 
	C1001.635315,533.249268 995.395752,533.249268 989.099731,533.249268 
	C989.099731,551.883789 989.099731,570.266052 989.099731,588.671509 
	C995.545532,588.671509 1001.755737,588.671509 1008.075378,588.671509 
	C1008.075378,579.361511 1008.005432,570.381042 1008.093811,561.402161 
	C1008.194641,551.169006 1014.821228,546.192810 1024.657104,548.895203 
	C1026.351929,549.360840 1027.968018,550.112793 1029.851929,550.819336 
	C1032.455566,545.461670 1035.023804,540.177063 1037.571533,534.934509 
	C1027.438354,529.372314 1018.946228,530.451477 1010.986755,537.802368 
	C1010.254395,538.478760 1009.059143,538.653809 1008.074341,538.341858 
M615.024231,547.505005 
	C615.024231,561.261841 615.024231,575.018677 615.024231,588.793884 
	C621.706604,588.793884 627.809509,588.793884 634.103271,588.793884 
	C634.103271,570.196472 634.103271,551.805359 634.103271,533.292725 
	C627.688599,533.292725 621.469177,533.292725 615.024231,533.292725 
	C615.024231,537.891968 615.024231,542.200195 615.024231,547.505005 
M1774.097778,566.037781 
	C1766.492065,569.274414 1763.190552,575.384155 1765.424316,582.088684 
	C1767.447632,588.161438 1773.737183,591.667114 1780.050415,590.240784 
	C1786.338013,588.820251 1790.652588,582.743896 1789.716187,576.568787 
	C1788.709351,569.929749 1782.737793,564.491028 1774.097778,566.037781 
M613.593628,509.549438 
	C614.712952,519.474670 623.642273,524.477600 631.194824,519.411072 
	C635.675110,516.405518 637.565369,510.799255 635.763306,505.861237 
	C634.149597,501.439270 629.196289,498.166718 624.480896,498.407196 
	C618.869934,498.693359 614.985413,502.429443 613.593628,509.549438 
z"/>
<path fill="#EB0102" opacity="1.000000" stroke="none" 
	d="
M196.071457,432.056641 
	C176.679092,437.823578 158.844376,446.372833 144.567886,461.164215 
	C127.623024,478.720215 132.341919,501.140503 144.166672,515.616943 
	C153.910553,527.545837 166.760773,535.124634 180.638275,541.134277 
	C205.600739,551.944458 231.972015,557.392029 258.760559,560.944153 
	C273.246887,562.864990 287.836609,564.006531 302.699219,565.532471 
	C302.699219,573.810547 302.699219,582.197876 302.699219,591.398315 
	C293.223938,590.876221 283.941284,590.702759 274.731903,589.789978 
	C252.683502,587.604858 230.866501,584.020874 209.534485,577.836426 
	C186.556854,571.174927 164.414551,562.555603 144.624847,548.874939 
	C132.272308,540.335571 121.846039,529.853760 116.319588,515.455444 
	C109.289879,497.140778 114.395241,480.978180 126.245781,466.659912 
	C138.194580,452.222900 154.241547,443.220428 171.044907,435.658752 
	C196.507797,424.200256 223.430038,418.392731 251.140060,416.030579 
	C261.251923,415.168579 271.400238,414.734070 280.808167,414.149475 
	C262.595215,417.685974 243.721344,421.350800 224.040527,425.003479 
	C214.179535,427.346436 205.125488,429.701538 196.071457,432.056641 
z"/>
<path fill="#FCFCFC" opacity="1.000000" stroke="none" 
	d="
M1099.187378,538.072021 
	C1099.187134,555.049622 1099.206055,571.532898 1099.181396,588.016235 
	C1099.154297,606.198242 1091.149536,615.787598 1073.160400,618.528076 
	C1064.338745,619.871948 1055.565918,619.179688 1047.303223,615.268494 
	C1041.840454,612.682739 1037.973022,608.624512 1035.342529,602.771729 
	C1040.713623,600.124512 1045.712402,597.660767 1050.648438,595.227905 
	C1057.911255,602.095398 1065.982788,604.021851 1072.900757,600.644287 
	C1078.458008,597.931091 1080.333618,593.906921 1079.667847,586.125427 
	C1061.516724,595.590515 1046.113770,589.021973 1039.390015,579.414673 
	C1031.241699,567.771973 1032.015503,550.617249 1041.526123,540.101746 
	C1051.003662,529.622742 1064.993896,528.612671 1079.767090,537.530273 
	C1079.897461,536.009949 1080.016357,534.624695 1080.143066,533.146790 
	C1086.417114,533.146790 1092.535400,533.146790 1099.187378,533.146790 
	C1099.187378,534.717590 1099.187378,536.147705 1099.187378,538.072021 
M1079.282349,555.700684 
	C1075.722046,549.364868 1070.404175,546.719421 1064.149902,548.172729 
	C1058.424805,549.503052 1054.327271,554.773682 1054.239868,560.919495 
	C1054.153198,567.023560 1057.744263,572.238159 1063.384766,573.622620 
	C1074.126709,576.259216 1082.780273,568.223755 1079.282349,555.700684 
z"/>
<path fill="#E6FA02" opacity="1.000000" stroke="none" 
	d="
M195.938690,432.375916 
	C205.125488,429.701538 214.179535,427.346436 223.666351,425.056274 
	C218.153809,428.458435 211.927185,431.387146 206.335220,435.237549 
	C199.524231,439.927277 192.534332,444.715668 186.887787,450.663300 
	C175.165344,463.010803 175.047653,476.320679 185.450958,489.763641 
	C195.802505,503.139740 209.889572,511.084625 225.394577,516.870605 
	C247.329208,525.055908 270.248444,527.773865 293.435669,528.903748 
	C296.403961,529.048462 299.385406,528.923584 302.683807,528.923584 
	C302.683807,535.726318 302.683807,542.110229 302.683807,549.444458 
	C291.969177,548.614197 281.381012,548.112488 270.872528,546.912842 
	C249.137161,544.431580 227.844406,539.963135 207.752274,530.940186 
	C195.173477,525.291382 183.430130,518.207886 174.882645,507.176697 
	C155.784454,482.528656 155.789169,457.365570 185.513992,438.758118 
	C188.887726,436.646240 192.372589,434.711884 195.938690,432.375916 
z"/>
<path fill="#FBFBFB" opacity="1.000000" stroke="none" 
	d="
M1666.995605,497.238098 
	C1677.303223,497.892883 1686.926758,499.295441 1695.590820,505.609283 
	C1692.737305,511.340302 1689.956787,516.924683 1687.023926,522.815125 
	C1678.241699,517.745422 1669.202759,516.271729 1659.620483,518.778137 
	C1653.638550,520.342834 1648.622314,523.289856 1644.911255,528.367371 
	C1637.437866,538.592529 1637.865479,551.338440 1646.093994,560.997620 
	C1655.148560,571.626343 1671.457275,573.379944 1687.034302,565.195679 
	C1689.841553,570.801758 1692.645996,576.401978 1695.565918,582.233093 
	C1686.662964,588.881531 1676.568848,590.479614 1666.218628,590.651733 
	C1641.909546,591.055725 1620.762329,572.665588 1617.513550,548.610413 
	C1614.896484,529.232483 1627.777710,508.763336 1648.128052,501.068542 
	C1653.921021,498.878021 1660.383789,498.458649 1666.995605,497.238098 
z"/>
<path fill="#FBFBFB" opacity="1.000000" stroke="none" 
	d="
M888.173645,517.709106 
	C875.455933,518.690369 866.527405,524.361389 862.595886,536.328796 
	C859.114502,546.926086 862.108704,556.352356 870.320251,563.392029 
	C880.566589,572.176086 892.418518,572.169312 904.516357,567.279724 
	C905.884033,566.726990 907.149841,565.922180 908.729309,565.094727 
	C911.549011,570.702698 914.366882,576.307007 917.154785,581.851685 
	C902.229736,595.698425 870.420349,593.049988 853.400513,576.722900 
	C835.500610,559.551575 834.033752,533.505066 850.244934,514.712708 
	C869.332703,492.585693 900.495056,493.814392 917.276611,505.712036 
	C914.489319,511.324432 911.654968,517.031555 909.486328,521.398315 
	C902.064148,520.074768 895.349854,518.877441 888.173645,517.709106 
z"/>
<path fill="#FCFCFC" opacity="1.000000" stroke="none" 
	d="
M361.985443,570.992004 
	C366.307922,570.992004 370.133484,570.992004 374.302551,570.992004 
	C374.302551,576.907654 374.302551,582.636414 374.302551,588.687500 
	C357.441589,588.687500 340.541321,588.687500 323.328491,588.687500 
	C323.328491,559.087585 323.328491,529.356079 323.328491,499.292633 
	C340.083954,499.292633 356.988708,499.292633 374.271240,499.292633 
	C374.271240,504.859344 374.271240,510.575836 374.271240,516.792419 
	C364.314911,516.792419 354.254181,516.792419 343.925018,516.792419 
	C343.925018,522.996948 343.925018,528.710938 343.925018,534.880920 
	C353.635803,534.880920 363.217651,534.880920 372.944336,534.880920 
	C372.944336,541.065491 372.944336,546.794678 372.944336,552.965820 
	C363.126862,552.965820 353.541779,552.965820 343.809082,552.965820 
	C343.809082,559.033630 343.809082,564.660706 343.809082,570.992004 
	C349.656982,570.992004 355.572754,570.992004 361.985443,570.992004 
z"/>
<path fill="#FDFDFD" opacity="1.000000" stroke="none" 
	d="
M1248.996826,588.736572 
	C1232.205933,588.736572 1215.415161,588.736572 1198.321289,588.736572 
	C1198.321289,559.078979 1198.321289,529.356201 1198.321289,499.297668 
	C1215.192139,499.297668 1232.208008,499.297668 1249.435547,499.297668 
	C1249.435547,505.057892 1249.435547,510.662415 1249.435547,516.764526 
	C1239.340698,516.764526 1229.286011,516.764526 1218.942627,516.764526 
	C1218.942627,522.966431 1218.942627,528.679443 1218.942627,534.843201 
	C1228.585083,534.843201 1238.165039,534.843201 1247.960327,534.843201 
	C1247.960327,541.017273 1247.960327,546.745850 1247.960327,552.916382 
	C1238.186890,552.916382 1228.607422,552.916382 1218.842285,552.916382 
	C1218.842285,559.093994 1218.842285,564.830627 1218.842285,571.018494 
	C1229.076416,571.018494 1239.153687,571.018494 1249.607422,571.018494 
	C1249.607422,576.419922 1249.607422,581.380493 1249.358276,586.966919 
	C1249.071655,587.974060 1249.034180,588.355286 1248.996826,588.736572 
z"/>
<path fill="#FBFBFB" opacity="1.000000" stroke="none" 
	d="
M465.946381,586.798340 
	C452.942261,596.312134 435.658020,589.671082 433.936462,574.022888 
	C433.000763,565.517822 433.769562,556.825195 433.769562,548.337341 
	C430.057068,547.848633 427.313965,547.487488 423.992249,547.050232 
	C423.644196,547.702576 422.881134,549.132629 422.041321,550.706543 
	C421.585907,550.610107 421.128906,550.601501 420.754303,550.421387 
	C408.649017,544.601257 400.338837,549.816101 400.318237,563.269653 
	C400.305237,571.740906 400.315826,580.212219 400.315826,588.842651 
	C393.827026,588.842651 387.713257,588.842651 381.306702,588.842651 
	C381.306702,570.390442 381.306702,551.997253 381.306702,533.297729 
	C387.437653,533.297729 393.663879,533.297729 400.110687,533.297729 
	C400.248138,535.244629 400.385956,537.196777 400.484192,538.588440 
	C405.549255,536.225037 410.419922,532.698730 415.727692,531.823547 
	C421.184021,530.923889 427.067047,532.612061 433.153656,533.205933 
	C433.153656,526.008911 433.153656,519.408020 433.153656,512.443054 
	C439.694000,512.443054 445.909241,512.443054 452.625824,512.443054 
	C452.625824,519.105957 452.625824,525.839600 452.625824,532.902588 
	C456.723938,532.902588 460.336761,532.902588 464.132996,532.902588 
	C464.132996,538.004822 464.132996,542.761414 464.132996,547.746826 
	C460.396667,547.746826 456.930939,547.746826 453.030853,547.746826 
	C453.030853,555.035950 452.540405,562.154785 453.187225,569.168823 
	C453.697479,574.702332 457.995850,573.270630 461.892670,571.915527 
	C463.295837,576.457458 464.657196,580.863953 465.996338,585.848999 
	C465.974121,586.427612 465.946381,586.798340 465.946381,586.798340 
z"/>
<path fill="#FDFDFD" opacity="1.000000" stroke="none" 
	d="
M1383.132568,544.975708 
	C1390.727295,559.835022 1387.337280,577.020447 1375.324829,585.717957 
	C1365.635742,592.733398 1353.104126,592.299133 1341.253052,584.139038 
	C1341.253052,595.334839 1341.253052,606.140564 1341.253052,617.128662 
	C1334.564575,617.128662 1328.483154,617.128662 1322.134277,617.128662 
	C1322.134277,589.161011 1322.134277,561.289062 1322.134277,533.207153 
	C1328.348877,533.207153 1334.446533,533.207153 1340.932617,533.207153 
	C1340.932617,534.997314 1340.932617,536.709045 1340.932617,538.682068 
	C1357.598999,527.112854 1372.329224,529.316589 1383.132568,544.975708 
M1345.362183,550.750122 
	C1344.386108,551.867554 1343.227417,552.873657 1342.466797,554.122314 
	C1339.735962,558.604858 1340.359131,565.522583 1343.714722,569.519531 
	C1347.341797,573.839966 1353.248169,575.300354 1358.603638,573.201111 
	C1363.770386,571.175781 1366.891479,566.451904 1366.820312,560.764587 
	C1366.685547,549.976990 1356.292847,544.740723 1345.362183,550.750122 
z"/>
<path fill="#FBFBFB" opacity="1.000000" stroke="none" 
	d="
M466.389099,586.725098 
	C465.946381,586.798340 465.974121,586.427612 465.977997,586.241821 
	C466.512024,584.734680 467.499878,583.415100 467.504669,582.091980 
	C467.596252,556.681885 467.570923,531.271423 467.574280,505.861023 
	C467.574677,502.871826 467.601410,499.882629 467.987915,496.375488 
	C468.632935,495.715240 468.840729,495.507599 468.983246,495.234680 
	C474.777313,495.234680 480.571381,495.234680 486.704346,495.234680 
	C486.704346,509.451111 486.704346,523.540955 486.704346,538.258240 
	C487.855103,537.679565 488.575073,537.478577 489.086334,537.036377 
	C496.916931,530.263123 505.591064,530.129150 514.784668,533.641663 
	C522.970459,536.769043 527.488953,542.730225 527.681641,551.413757 
	C527.954407,563.708984 527.750854,576.014832 527.750854,588.660645 
	C521.347351,588.660645 515.116882,588.660645 508.286255,588.660645 
	C508.286255,582.650574 508.289337,576.543945 508.285278,570.437317 
	C508.282410,566.108032 508.382660,561.774902 508.235474,557.450378 
	C508.011047,550.855530 504.036957,546.501831 498.423248,546.460388 
	C492.407532,546.416016 487.039368,551.635376 486.970642,557.908325 
	C486.859467,568.049194 486.940765,578.192200 486.940765,589.001038 
	C481.028015,589.001038 475.269684,589.104431 469.522705,588.895813 
	C468.599823,588.862305 467.727478,587.434937 466.389099,586.725098 
z"/>
<path fill="#FDFDFD" opacity="1.000000" stroke="none" 
	d="
M971.035461,589.003906 
	C967.901184,589.003906 965.254089,589.003906 962.230469,589.003906 
	C962.136719,587.058960 962.053955,585.341675 961.940247,582.982788 
	C955.140320,589.314819 947.590576,591.647400 938.835999,590.225830 
	C932.274292,589.160339 926.996948,586.069153 922.770447,581.070496 
	C913.133606,569.673218 913.429382,551.425842 923.391907,540.253235 
	C932.967651,529.514465 948.074463,528.394104 961.663696,537.747314 
	C961.836060,536.172852 961.984131,534.820312 962.157959,533.232422 
	C968.366272,533.232422 974.582031,533.232422 980.992981,533.232422 
	C980.992981,551.788818 980.992981,570.163391 980.992981,589.003906 
	C977.759216,589.003906 974.640869,589.003906 971.035461,589.003906 
M940.089905,551.549561 
	C939.395691,552.473633 938.582581,553.331726 938.027039,554.332764 
	C935.181030,559.460876 935.856812,566.042419 939.575745,570.112000 
	C943.147339,574.020447 949.563477,575.275085 954.723572,573.073914 
	C959.928894,570.853516 962.488770,566.091736 962.204468,559.762146 
	C961.729065,549.180603 948.659424,544.045776 940.089905,551.549561 
z"/>
<path fill="#FBFBFB" opacity="1.000000" stroke="none" 
	d="
M1144.709961,532.082153 
	C1156.455566,535.024170 1165.297119,541.041504 1168.895142,552.631836 
	C1174.207642,569.745300 1163.041138,587.088135 1144.792725,589.789734 
	C1138.973877,590.651123 1132.723877,590.634766 1126.969604,589.503052 
	C1111.703979,586.500793 1102.510376,574.536255 1103.034912,559.635254 
	C1103.516724,545.948547 1114.734985,533.971497 1129.393799,532.087646 
	C1134.282349,531.459534 1139.322510,532.011169 1144.709961,532.082153 
M1133.221680,548.222351 
	C1132.446289,548.512756 1131.634644,548.731934 1130.901245,549.104797 
	C1124.465820,552.376404 1121.808228,559.678589 1124.551758,566.477295 
	C1127.000366,572.545410 1134.043213,575.634399 1140.710938,573.565002 
	C1147.128174,571.573242 1150.634033,565.260437 1149.245361,558.197815 
	C1147.857178,551.138123 1142.752441,547.739624 1133.221680,548.222351 
z"/>
<path fill="#FBFBFB" opacity="1.000000" stroke="none" 
	d="
M1700.703857,542.739624 
	C1712.531616,530.796692 1726.359009,528.715698 1741.337524,533.867126 
	C1755.199219,538.634399 1762.447388,550.695190 1760.945312,564.921143 
	C1759.641235,577.271973 1748.889404,588.301758 1735.431030,589.803528 
	C1728.965332,590.525024 1722.002319,590.438660 1715.757080,588.818848 
	C1694.822021,583.388855 1687.346924,560.240662 1700.703857,542.739624 
M1727.509155,574.072754 
	C1735.791992,573.465027 1740.780518,568.421387 1740.626587,560.810120 
	C1740.479858,553.564392 1735.152466,548.114197 1728.052002,547.945679 
	C1720.862549,547.775024 1715.430176,552.448669 1714.754883,559.385742 
	C1713.942261,567.733521 1718.119629,572.872803 1727.509155,574.072754 
z"/>
<path fill="#FBFBFB" opacity="1.000000" stroke="none" 
	d="
M668.303528,547.800293 
	C663.569641,550.660278 661.741638,554.476624 661.871033,559.675110 
	C662.110535,569.290283 661.939514,578.915710 661.939514,588.769653 
	C655.472290,588.769653 649.368347,588.769653 642.914001,588.769653 
	C642.914001,570.438599 642.914001,552.055298 642.914001,533.331360 
	C649.027893,533.331360 655.243896,533.331360 661.812378,533.331360 
	C661.895874,534.787476 661.983887,536.323120 662.123108,538.751648 
	C670.586487,530.640198 679.746216,529.741943 689.712585,533.596619 
	C698.100342,536.840759 702.561951,542.943054 702.720276,551.834595 
	C702.936462,563.974915 702.774231,576.121887 702.774231,588.636230 
	C696.393066,588.636230 690.159058,588.636230 683.284851,588.636230 
	C683.284851,581.035950 683.285217,573.266968 683.284546,565.498047 
	C683.284363,562.999512 683.345459,560.499023 683.268188,558.002808 
	C682.983643,548.808533 677.500061,544.926147 668.303528,547.800293 
z"/>
<path fill="#FAFAFA" opacity="1.000000" stroke="none" 
	d="
M1488.896729,563.771667 
	C1478.082642,563.790283 1467.753052,563.806274 1457.423340,563.840393 
	C1457.110107,563.841431 1456.797363,564.032776 1456.290283,564.198975 
	C1456.150757,568.835754 1458.324829,572.157532 1462.515259,573.860840 
	C1469.987305,576.898132 1476.496582,575.002625 1481.931030,569.041870 
	C1486.532349,571.362915 1490.935547,573.583984 1495.335205,575.803284 
	C1490.301636,585.910950 1478.088379,591.736877 1464.785156,590.613220 
	C1450.794800,589.431519 1439.704468,580.275269 1436.787842,567.498047 
	C1433.907349,554.880005 1439.423584,542.471497 1450.969238,535.597046 
	C1462.210693,528.903748 1478.372681,530.184631 1487.905640,538.600342 
	C1495.286987,545.116455 1496.984253,553.718079 1496.859131,563.771667 
	C1494.232178,563.771667 1491.806641,563.771667 1488.896729,563.771667 
M1477.228638,550.482910 
	C1474.365845,544.972900 1469.963623,542.709290 1464.241211,544.237427 
	C1460.023926,545.363647 1456.916016,547.745056 1457.053467,552.990173 
	C1463.427490,552.990173 1469.550049,553.041443 1475.668945,552.913025 
	C1476.300171,552.899780 1476.909180,551.815430 1477.228638,550.482910 
z"/>
<path fill="#FAFAFA" opacity="1.000000" stroke="none" 
	d="
M725.345459,533.130737 
	C732.294006,532.844421 739.118469,531.433472 745.377747,532.736755 
	C759.621521,535.702820 766.910339,547.390198 765.762512,563.621582 
	C752.551086,563.621582 739.292419,563.621582 725.833679,563.621582 
	C725.223450,568.635742 727.321411,571.871155 731.201538,573.605225 
	C738.764893,576.985352 745.483337,575.232361 751.192200,569.041382 
	C755.839844,571.394775 760.365112,573.686218 764.930298,575.997803 
	C757.282715,587.925659 742.803528,593.256226 728.298340,589.790405 
	C715.998047,586.851440 706.524414,575.932678 705.283752,563.265076 
	C704.056885,550.738647 711.478516,539.415833 725.345459,533.130737 
M738.442993,552.991882 
	C741.210327,552.991882 743.977600,552.991882 746.807739,552.991882 
	C745.593811,546.513245 742.387085,543.866821 736.240173,543.965515 
	C730.308716,544.060730 727.178040,546.751892 726.165222,552.991882 
	C729.969910,552.991882 733.720154,552.991882 738.442993,552.991882 
z"/>
<path fill="#FFFFFF" opacity="1.000000" stroke="none" 
	d="
M610.244141,583.942871 
	C610.244080,585.758545 610.244080,587.080444 610.244080,588.700684 
	C593.214905,588.700684 576.329895,588.700684 559.158203,588.700684 
	C559.158203,559.040039 559.158203,529.338806 559.158203,499.302246 
	C565.531006,499.302246 572.086914,499.302246 579.067749,499.302246 
	C579.067749,522.917725 579.067749,546.610229 579.067749,570.768616 
	C589.519714,570.768616 599.572083,570.768616 610.244141,570.768616 
	C610.244141,575.288635 610.244141,579.368835 610.244141,583.942871 
z"/>
<path fill="#FBFBFB" opacity="1.000000" stroke="none" 
	d="
M1249.459229,588.821045 
	C1249.034180,588.355286 1249.071655,587.974060 1249.210571,587.429688 
	C1250.129028,586.813904 1251.174438,586.550110 1251.728638,585.879883 
	C1258.820801,577.302246 1265.842529,568.666382 1273.114136,559.761353 
	C1266.454590,551.043396 1259.850586,542.398132 1252.680176,533.011475 
	C1260.276001,533.011475 1267.156006,532.917358 1274.027588,533.114807 
	C1275.036621,533.143799 1276.198364,534.405090 1276.958618,535.359741 
	C1279.542847,538.605225 1281.979004,541.968689 1284.896240,545.852478 
	C1287.556641,542.379089 1289.821899,538.954224 1292.592285,536.003784 
	C1293.958862,534.548340 1296.215210,533.243958 1298.144531,533.127930 
	C1304.212402,532.763000 1310.316162,532.993652 1317.234375,532.993652 
	C1310.113159,542.306030 1303.506714,550.945374 1296.782593,559.738647 
	C1304.613159,569.356506 1312.324463,578.827881 1320.608765,589.002930 
	C1312.768188,589.002930 1305.846191,589.140259 1298.938965,588.880920 
	C1297.638794,588.832214 1296.133911,587.419678 1295.177856,586.261475 
	C1291.809570,582.180969 1288.638916,577.937317 1284.992065,573.238525 
	C1281.379150,577.846008 1278.200928,582.241455 1274.618530,586.278137 
	C1273.399048,587.652039 1271.191772,588.805481 1269.385010,588.883484 
	C1262.908936,589.163269 1256.411133,588.939209 1249.459229,588.821045 
z"/>
<path fill="#027407" opacity="1.000000" stroke="none" 
	d="
M208.249359,454.182129 
	C210.716095,471.780060 223.792725,478.907135 237.720322,484.676727 
	C254.580002,491.660889 272.445862,494.614014 290.575043,496.070831 
	C294.516113,496.387512 298.436310,496.963684 302.674255,497.456116 
	C302.674255,501.479309 302.674255,505.385590 302.674255,510.329926 
	C294.307251,509.842102 285.950043,510.181610 277.927429,508.704224 
	C263.926392,506.125854 249.909058,503.155884 236.311844,498.998383 
	C222.463348,494.764099 210.085358,487.433044 201.629303,475.038055 
	C191.960464,460.865387 193.323563,450.045898 205.952072,438.480591 
	C212.980011,432.044342 231.016586,424.475250 241.152954,424.200378 
	C225.729507,430.204132 212.782593,437.482391 208.249359,454.182129 
z"/>
<path fill="#FAFAFA" opacity="1.000000" stroke="none" 
	d="
M1533.093750,588.280518 
	C1520.006958,592.205750 1507.882935,591.711487 1496.222168,583.342468 
	C1498.850342,578.850037 1501.322266,574.624573 1503.651978,570.642456 
	C1508.146729,572.558777 1512.179443,574.893677 1516.517822,575.866028 
	C1518.660889,576.346313 1522.758179,574.954956 1523.529175,573.283691 
	C1525.132080,569.810486 1521.348877,568.914307 1518.843506,567.691711 
	C1514.685303,565.662476 1510.229736,564.005676 1506.527710,561.324585 
	C1497.274048,554.622925 1497.934814,541.168518 1507.934937,535.463379 
	C1519.423706,528.908875 1531.227051,530.705261 1543.496826,535.551331 
	C1541.284546,539.965881 1539.251343,544.023071 1537.422241,547.672974 
	C1532.880859,546.695435 1528.903076,545.409180 1524.860352,545.155029 
	C1522.914185,545.032776 1520.845459,546.856689 1518.832153,547.799194 
	C1520.333862,549.286377 1521.589844,551.270508 1523.387451,552.159424 
	C1527.380859,554.134277 1531.888428,555.128784 1535.749634,557.299866 
	C1543.884766,561.874023 1546.459229,570.008667 1543.162109,578.742188 
	C1541.395874,583.420349 1538.005249,586.361877 1533.093750,588.280518 
z"/>
<path fill="#FBFBFB" opacity="1.000000" stroke="none" 
	d="
M1550.675171,572.755737 
	C1551.311890,571.761047 1551.748535,571.061279 1551.988892,570.676208 
	C1556.333130,572.531738 1560.384766,574.870911 1564.743164,575.862732 
	C1566.868042,576.346252 1570.936523,574.958618 1571.717529,573.290588 
	C1573.342529,569.819885 1569.613647,568.897705 1567.080078,567.677185 
	C1562.908203,565.667297 1558.445190,563.999573 1554.758789,561.295898 
	C1545.567139,554.554565 1546.473267,541.426331 1556.215332,535.333923 
	C1565.063232,529.800720 1581.221436,530.024719 1591.441162,536.035522 
	C1589.503662,539.975464 1587.550415,543.947083 1585.800049,547.506470 
	C1580.767700,546.623657 1576.124023,545.568787 1571.423096,545.133179 
	C1570.041992,545.005066 1568.498047,546.632935 1567.028809,547.456055 
	C1568.108276,548.913818 1568.881470,551.003296 1570.327759,551.704773 
	C1573.891357,553.432922 1577.886597,554.259277 1581.488525,555.923584 
	C1589.778320,559.753967 1593.307495,565.385986 1592.653564,573.028748 
	C1591.904053,581.785095 1587.553467,586.935303 1578.254639,589.194580 
	C1566.320435,592.094360 1554.940063,591.225098 1544.493530,583.190613 
	C1546.620850,579.584412 1548.548096,576.317566 1550.675171,572.755737 
z"/>
<path fill="#FCFCFC" opacity="1.000000" stroke="none" 
	d="
M788.935730,536.659729 
	C788.935791,537.913696 788.935791,538.741333 788.935791,540.562195 
	C797.557983,531.075317 807.040039,528.684387 818.410583,534.838074 
	C815.744995,540.276855 813.211914,545.445312 810.522278,550.933228 
	C809.248779,550.335449 808.144165,549.714111 806.969910,549.281799 
	C796.528076,545.436523 788.992920,550.669922 788.944336,561.819641 
	C788.905884,570.637817 788.936523,579.456299 788.936523,588.639160 
	C782.596375,588.639160 776.362122,588.639160 769.847046,588.639160 
	C769.847046,570.369568 769.847046,551.958679 769.847046,532.998230 
	C775.472778,532.998230 781.074646,532.868774 786.656738,533.142334 
	C787.464905,533.181946 788.178345,535.155029 788.935730,536.659729 
z"/>
<path fill="#FDFDFD" opacity="1.000000" stroke="none" 
	d="
M1439.416504,535.833130 
	C1436.823486,541.087708 1434.423706,545.980835 1431.971436,550.980957 
	C1430.472412,550.262817 1429.353394,549.591492 1428.147095,549.170166 
	C1417.928223,545.601135 1410.473267,550.798523 1410.326172,561.667419 
	C1410.206909,570.490967 1410.248169,579.316772 1410.207642,588.141479 
	C1410.207031,588.273865 1410.068604,588.405518 1409.863647,588.770203 
	C1403.891479,588.770203 1397.784058,588.770203 1391.346680,588.770203 
	C1391.346680,570.460693 1391.346680,552.066833 1391.346680,533.334351 
	C1397.375000,533.334351 1403.604248,533.334351 1410.134766,533.334351 
	C1410.228760,535.338928 1410.326172,537.413696 1410.460693,540.281677 
	C1419.342041,531.607727 1428.661621,527.638000 1439.416504,535.833130 
z"/>
<path fill="#FDFDFD" opacity="1.000000" stroke="none" 
	d="
M1008.076599,538.701782 
	C1009.059143,538.653809 1010.254395,538.478760 1010.986755,537.802368 
	C1018.946228,530.451477 1027.438354,529.372314 1037.571533,534.934509 
	C1035.023804,540.177063 1032.455566,545.461670 1029.851929,550.819336 
	C1027.968018,550.112793 1026.351929,549.360840 1024.657104,548.895203 
	C1014.821228,546.192810 1008.194641,551.169006 1008.093811,561.402161 
	C1008.005432,570.381042 1008.075378,579.361511 1008.075378,588.671509 
	C1001.755737,588.671509 995.545532,588.671509 989.099731,588.671509 
	C989.099731,570.266052 989.099731,551.883789 989.099731,533.249268 
	C995.395752,533.249268 1001.635315,533.249268 1008.074341,533.249268 
	C1008.074341,535.044312 1008.074341,536.693054 1008.076599,538.701782 
z"/>
<path fill="#FEFEFE" opacity="1.000000" stroke="none" 
	d="
M615.024231,547.006714 
	C615.024231,542.200195 615.024231,537.891968 615.024231,533.292725 
	C621.469177,533.292725 627.688599,533.292725 634.103271,533.292725 
	C634.103271,551.805359 634.103271,570.196472 634.103271,588.793884 
	C627.809509,588.793884 621.706604,588.793884 615.024231,588.793884 
	C615.024231,575.018677 615.024231,561.261841 615.024231,547.006714 
z"/>
<path fill="#FAFAFA" opacity="1.000000" stroke="none" 
	d="
M1774.514404,565.982178 
	C1782.737793,564.491028 1788.709351,569.929749 1789.716187,576.568787 
	C1790.652588,582.743896 1786.338013,588.820251 1780.050415,590.240784 
	C1773.737183,591.667114 1767.447632,588.161438 1765.424316,582.088684 
	C1763.190552,575.384155 1766.492065,569.274414 1774.514404,565.982178 
z"/>
<path fill="#FBFBFB" opacity="1.000000" stroke="none" 
	d="
M613.633423,509.175690 
	C614.985413,502.429443 618.869934,498.693359 624.480896,498.407196 
	C629.196289,498.166718 634.149597,501.439270 635.763306,505.861237 
	C637.565369,510.799255 635.675110,516.405518 631.194824,519.411072 
	C623.642273,524.477600 614.712952,519.474670 613.633423,509.175690 
z"/>
<path fill="#FBFBFB" opacity="1.000000" stroke="none" 
	d="
M468.693420,495.178802 
	C468.840729,495.507599 468.632935,495.715240 468.149292,495.931396 
	C468.093689,495.711121 468.248657,495.417023 468.693420,495.178802 
z"/>
<path fill="#040404" opacity="1.000000" stroke="none" 
	d="
M1079.470215,556.066650 
	C1082.780273,568.223755 1074.126709,576.259216 1063.384766,573.622620 
	C1057.744263,572.238159 1054.153198,567.023560 1054.239868,560.919495 
	C1054.327271,554.773682 1058.424805,549.503052 1064.149902,548.172729 
	C1070.404175,546.719421 1075.722046,549.364868 1079.470215,556.066650 
z"/>
<path fill="#040404" opacity="1.000000" stroke="none" 
	d="
M1345.648804,550.495972 
	C1356.292847,544.740723 1366.685547,549.976990 1366.820312,560.764587 
	C1366.891479,566.451904 1363.770386,571.175781 1358.603638,573.201111 
	C1353.248169,575.300354 1347.341797,573.839966 1343.714722,569.519531 
	C1340.359131,565.522583 1339.735962,558.604858 1342.466797,554.122314 
	C1343.227417,552.873657 1344.386108,551.867554 1345.648804,550.495972 
z"/>
<path fill="#040404" opacity="1.000000" stroke="none" 
	d="
M940.370850,551.299377 
	C948.659424,544.045776 961.729065,549.180603 962.204468,559.762146 
	C962.488770,566.091736 959.928894,570.853516 954.723572,573.073914 
	C949.563477,575.275085 943.147339,574.020447 939.575745,570.112000 
	C935.856812,566.042419 935.181030,559.460876 938.027039,554.332764 
	C938.582581,553.331726 939.395691,552.473633 940.370850,551.299377 
z"/>
<path fill="#040404" opacity="1.000000" stroke="none" 
	d="
M1133.627930,548.146484 
	C1142.752441,547.739624 1147.857178,551.138123 1149.245361,558.197815 
	C1150.634033,565.260437 1147.128174,571.573242 1140.710938,573.565002 
	C1134.043213,575.634399 1127.000366,572.545410 1124.551758,566.477295 
	C1121.808228,559.678589 1124.465820,552.376404 1130.901245,549.104797 
	C1131.634644,548.731934 1132.446289,548.512756 1133.627930,548.146484 
z"/>
<path fill="#040404" opacity="1.000000" stroke="none" 
	d="
M1727.088623,574.057190 
	C1718.119629,572.872803 1713.942261,567.733521 1714.754883,559.385742 
	C1715.430176,552.448669 1720.862549,547.775024 1728.052002,547.945679 
	C1735.152466,548.114197 1740.479858,553.564392 1740.626587,560.810120 
	C1740.780518,568.421387 1735.791992,573.465027 1727.088623,574.057190 
z"/>
<path fill="#090909" opacity="1.000000" stroke="none" 
	d="
M1477.378540,550.855469 
	C1476.909180,551.815430 1476.300171,552.899780 1475.668945,552.913025 
	C1469.550049,553.041443 1463.427490,552.990173 1457.053467,552.990173 
	C1456.916016,547.745056 1460.023926,545.363647 1464.241211,544.237427 
	C1469.963623,542.709290 1474.365845,544.972900 1477.378540,550.855469 
z"/>
<path fill="#090909" opacity="1.000000" stroke="none" 
	d="
M737.956726,552.991882 
	C733.720154,552.991882 729.969910,552.991882 726.165222,552.991882 
	C727.178040,546.751892 730.308716,544.060730 736.240173,543.965515 
	C742.387085,543.866821 745.593811,546.513245 746.807739,552.991882 
	C743.977600,552.991882 741.210327,552.991882 737.956726,552.991882 
z"/>
</svg>