<svg version="1.1" id="Layer_1" xmlns="http://www.w3.org/2000/svg" x="0" y="0" viewBox="0 0 256 256" style="enable-background:new 0 0 256 256" xml:space="preserve"><style></style><path d="M245.15 156.294c4.33-17.9 4.6-37.61 0-56.6h-18.09a102.44 102.44 0 0 0-9.01-21.72l12.81-12.8a121.08 121.08 0 0 0-40.04-40.04l-12.801 12.81a102.432 102.432 0 0 0-21.719-9.01v-18.09c-17.98-4.35-37.69-4.58-56.6 0v18.09a102.44 102.44 0 0 0-21.72 9.01l-12.801-12.81a121.09 121.09 0 0 0-40.04 40.04l12.811 12.8c-3.79 6.81-6.83 14.08-9.011 21.72h-18.09c-4.369 18.05-4.559 37.76 0 56.6h18.09a102.495 102.495 0 0 0 9.011 21.72l-12.811 12.8a121.09 121.09 0 0 0 40.04 40.04l12.801-12.81a102.44 102.44 0 0 0 21.72 9.01v18.09c17.979 4.35 37.689 4.58 56.6 0v-18.09c7.639-2.18 14.91-5.22 21.719-9.01l12.801 12.81a121.08 121.08 0 0 0 40.04-40.04l-12.81-12.8a102.44 102.44 0 0 0 9.01-21.72h18.09zm-117.16 50.24c-43.37 0-78.5-35.17-78.5-78.55 0-43.37 35.13-78.5 78.5-78.5 43.38 0 78.55 35.13 78.55 78.5 0 43.38-35.17 78.55-78.55 78.55z" style="fill:#afafaf"/><path d="M128.021 223.186c-20.031 0-39.18-6.134-55.375-17.74a2.5 2.5 0 0 1 2.912-4.064c15.342 10.994 33.483 16.805 52.463 16.805 49.812 0 90.19-40.287 90.19-90.152 0-24.097-9.39-46.758-26.439-63.808a2.498 2.498 0 0 1 0-3.535 2.498 2.498 0 0 1 3.535 0c17.994 17.995 27.904 41.911 27.904 67.343 0 52.575-42.563 95.151-95.19 95.151zm-63.384-24.158a97.5 97.5 0 0 1-3.941-3.727 2.5 2.5 0 0 1 3.537-3.536 90.827 90.827 0 0 0 3.736 3.533 2.5 2.5 0 0 1-3.332 3.73z" style="fill:#efefef"/><path style="fill:#fc5d3d" d="m128 88.353-38.445 19v44.71L128 171.064l38.149-19.001v-44.71z"/><path d="m126.894 163.706-29.847-14.734a2.499 2.499 0 0 1-1.394-2.242v-25.509a2.5 2.5 0 1 1 5 0v23.955l27.341 13.497 15.911-7.934a2.5 2.5 0 1 1 2.231 4.475l-17.021 8.487a2.496 2.496 0 0 1-2.221.005zm24.838-14.075a2.5 2.5 0 0 1 1.122-3.353l3.58-1.785a2.5 2.5 0 0 1 2.231 4.475l-3.58 1.785a2.501 2.501 0 0 1-3.353-1.122z" style="fill:#ffcbc3"/><path d="M10.85 97.194c-1.16 0-2.16.79-2.43 1.92-2.271 9.37-3.42 19.09-3.42 28.89s1.149 19.51 3.42 28.88a2.494 2.494 0 0 0 2.43 1.91h16.22a104.986 104.986 0 0 0 7.79 18.77l-11.489 11.48c-.82.83-.971 2.09-.36 3.08 10.14 16.58 24.271 30.71 40.86 40.86.96.59 2.279.43 3.069-.37l11.49-11.48c5.99 3.2 12.311 5.82 18.771 7.79v16.22c0 1.16.79 2.16 1.92 2.43 18.668 4.523 38.759 4.598 57.76 0a2.492 2.492 0 0 0 1.92-2.43v-16.22a104.212 104.212 0 0 0 18.77-7.79l11.49 11.49c.79.79 2.101.95 3.07.36 16.58-10.15 30.71-24.28 40.86-40.86.6-.99.449-2.26-.37-3.08l-11.48-11.48c3.2-5.99 5.82-12.31 7.79-18.77h16.22c1.16 0 2.16-.79 2.431-1.92 4.502-18.588 4.618-38.693 0-57.76a2.494 2.494 0 0 0-2.431-1.92h-16.22a104.84 104.84 0 0 0-7.79-18.77l11.48-11.49c.819-.82.979-2.08.37-3.07-10.15-16.58-24.28-30.71-40.86-40.86-.97-.59-2.28-.43-3.07.36l-11.49 11.49c-5.989-3.2-12.31-5.82-18.77-7.79v-16.22c0-1.16-.79-2.16-1.92-2.44-18.74-4.53-39.021-4.53-57.771 0a2.514 2.514 0 0 0-1.909 2.44v16.22a104.88 104.88 0 0 0-18.771 7.79l-11.49-11.49c-.79-.79-2.1-.95-3.069-.36a123.57 123.57 0 0 0-15.91 11.58c-1.05.9-1.17 2.48-.271 3.53.86 1 2.521 1.13 3.521.27 4.28-3.67 8.85-7.06 13.6-10.08l11.4 11.4c.77.78 2.03.95 2.99.42 6.71-3.74 13.84-6.69 21.189-8.79a2.497 2.497 0 0 0 1.811-2.4v-16.11c16.77-3.76 34.81-3.76 51.6 0v16.11c0 1.11.74 2.1 1.81 2.4a99.869 99.869 0 0 1 21.19 8.79c.96.53 2.21.36 2.98-.42l11.409-11.4c14.601 9.28 27.221 21.9 36.49 36.5l-11.399 11.4c-.78.79-.95 2.02-.41 2.99a100.016 100.016 0 0 1 8.79 21.19c.3 1.07 1.29 1.81 2.399 1.81h16.11c3.779 16.887 3.768 34.764 0 51.6h-16.11c-1.109 0-2.1.74-2.399 1.81a100.105 100.105 0 0 1-8.79 21.19c-.54.97-.37 2.2.41 2.99l11.399 11.39c-9.27 14.61-21.89 27.23-36.49 36.51l-11.409-11.4a2.514 2.514 0 0 0-2.98-.42 99.885 99.885 0 0 1-21.19 8.79 2.497 2.497 0 0 0-1.81 2.4v16.11c-16.81 3.76-34.83 3.75-51.6 0v-16.11c0-1.11-.74-2.1-1.811-2.4a99.882 99.882 0 0 1-21.189-8.79 2.529 2.529 0 0 0-2.99.42l-11.4 11.4c-14.6-9.28-27.22-21.9-36.5-36.51l11.4-11.39c.79-.79.96-2.02.42-2.99a100 100 0 0 1-8.79-21.19 2.505 2.505 0 0 0-2.4-1.81H12.83c-1.88-8.39-2.83-17.06-2.83-25.79s.95-17.41 2.83-25.81h16.109c1.11 0 2.091-.74 2.4-1.81a100 100 0 0 1 8.79-21.19c.54-.97.37-2.2-.42-2.99l-11.4-11.4c2.76-4.33 5.83-8.54 9.15-12.51.895-1.062.728-2.645-.311-3.52-1.02-.85-2.67-.7-3.52.31-3.9 4.66-7.47 9.63-10.62 14.78-.61.99-.46 2.25.36 3.07l11.489 11.49c-3.199 6-5.819 12.31-7.79 18.77H10.85z"/><path d="M44.05 45.054c.97-.98.96-2.57-.02-3.53-.95-.94-2.601-.93-3.54.02a2.495 2.495 0 0 0 .02 3.53 2.51 2.51 0 0 0 3.54-.02zM186.649 183.914c14.44-15.14 22.391-35 22.391-55.93 0-44.853-36.379-81-81.05-81-44.779 0-81 36.265-81 81 0 44.73 36.204 81.05 81 81.05l.02-.05v.05c15.12 0 29.88-4.2 42.68-12.15 1.17-.72 1.53-2.27.801-3.44-.732-1.177-2.247-1.525-3.44-.81 0 .01-.01.01-.01.01-12.01 7.45-25.851 11.39-40.05 11.39-42.023 0-76-34.011-76-76.05 0-41.935 33.884-75.979 76-76 42.019.021 76.05 33.952 76.05 76 0 19.64-7.471 38.27-21.01 52.48-.95.99-.91 2.58.079 3.53.97.93 2.619.889 3.539-.08z"/><path d="M175.93 187.024a2.488 2.488 0 0 0-.37 3.52 2.507 2.507 0 0 0 3.521.36 2.486 2.486 0 0 0 .359-3.51c-.84-1.03-2.48-1.21-3.51-.37z"/><circle cx="166.149" cy="125.164" r="2.5"/><path d="M183.359 160.604c.61-1.24.101-2.74-1.13-3.35l-13.58-6.74v-15.35a2.5 2.5 0 0 0-5 0v15.35l-33.149 16.51v-39.122l33.149-16.511v3.773a2.5 2.5 0 0 0 5 0v-7.81c0-.929-.544-1.817-1.39-2.24L130.5 86.807v-15.2a2.5 2.5 0 1 0-5 0v15.194c-.465.23-36.621 18.098-37.081 18.334a2.514 2.514 0 0 0-1.369 2.219v43.154l-13.28 6.586c-1.229.62-1.739 2.12-1.13 3.35.648 1.298 2.196 1.722 3.351 1.13l13.561-6.726 37.338 18.456a2.59 2.59 0 0 0 2.22 0l37.038-18.446 13.863 6.876a2.5 2.5 0 0 0 3.348-1.13zM92.05 111.375l33.45 16.532v39.136l-33.45-16.529v-39.139zm35.94-20.231 32.549 16.211-32.543 16.209-32.804-16.212 32.798-16.208z"/></svg>